<?xml version="1.0" encoding="utf-8"?>
<!-- Generator: Adobe Illustrator 27.7.0, SVG Export Plug-In . SVG Version: 6.00 Build 0)  -->
<svg version="1.1" id="Layer_1" xmlns="http://www.w3.org/2000/svg" xmlns:xlink="http://www.w3.org/1999/xlink" x="0px" y="0px"
	 viewBox="0 0 25.9 23.8" style="enable-background:new 0 0 25.9 23.8;" xml:space="preserve">
<style type="text/css">
	.st0{fill:none;stroke:#B9BB8B;stroke-linecap:round;stroke-linejoin:round;stroke-miterlimit:10;}
</style>
<path class="st0" d="M8.9,15.6c0.3,0.2,0.5,0.4,0.7,0.7c0.4,0.5,1,0.4,1.5,0.6c1.2,0.5,2.5,0.4,3.7,0.6c0.9,0.2,1.8,0.5,2.4,1.2
	c0.4,0.4,0.5,0.9,0.6,1.4c0.1,0.3,0.2,0.6,0.5,0.8c0.5,0.4,0.8,1,1,1.6c0.1,0.3,0,0.4-0.3,0.3c-0.5-0.1-1.1,0-1.7-0.1
	c-0.1,0-0.1,0-0.2,0c-0.9,0.7-2,0.6-3,0.5c-1.4-0.2-2.4-0.8-3.4-1.8c-0.5-0.6-1.2-0.9-2.1-0.9c-0.8,0.1-1.6-0.3-2.2-0.8
	c-0.3-0.2-0.4-0.5-0.6-0.8c-0.5-1.1-1.3-1.9-2.4-2.4c-1-0.5-1.8-1.1-2.3-2c-0.3-0.5-0.5-1-0.5-1.6C0.4,11.5,0.7,10.2,1.3,9
	c0.6-1,1.3-1.9,2.3-2.4C4,6.4,4.2,6,4.3,5.6C4.5,4.7,5.2,4.1,6,3.8c0.5-0.2,1.1-0.4,1.7-0.4c0.5,0,0.9-0.2,1.2-0.6
	c0.9-1,2.1-1.6,3.4-1.9c0.9-0.2,1.8-0.4,2.7-0.2c0.6,0.2,1.2,0.1,1.7-0.1c0.5-0.2,1,0,1.5,0.1c0.1,0,0.2,0.1,0.1,0.2
	c-0.6,0.5-0.8,1.2-1.4,1.7c-0.1,0.1-0.2,0.3-0.2,0.5c-0.2,1.7-1.3,2.8-2.9,3.1c-0.7,0.1-1.3,0.2-1.9,0.4C11,6.9,10.2,7.4,9.4,8
	C9,8.2,8.7,8.5,8.4,8.7C8.2,8.8,8.1,9,8.1,9.2s0.3,0.3,0.4,0.3c0.6,0.2,1.3,0.1,2,0.1c0.9,0,1.9,0.1,2.8,0c1-0.1,1.9-0.4,2.8-0.8
	c1.3-0.6,2.7-1,4.2-0.5c0.8,0.3,1.4,0.9,1.8,1.6c0.1,0.2,0.2,0.2,0.4,0.2c1-0.1,1.9,0.2,2.6,1c0.1,0.1,0.2,0.3,0.3,0.5
	c0,0.1,0.1,0.3,0,0.4c-0.1,0.1-0.2-0.1-0.3-0.1c-0.4-0.1-0.7,0.1-1,0.2c-0.4,0.2-0.7,0.4-1,0.6c-0.6,0.3-0.7,0.9-1,1.3
	c-0.5,0.7-1.2,1.1-2,1.4c-1.8,0.8-3.7,0.7-5.6,0.4c-1.6-0.2-3.3-0.5-4.9-0.5C9.4,15.4,9.2,15.4,8.9,15.6z"/>
</svg>
