<?xml version="1.0" encoding="utf-8"?>
<!-- Generator: Adobe Illustrator 27.7.0, SVG Export Plug-In . SVG Version: 6.00 Build 0)  -->
<svg version="1.1" id="Layer_1" xmlns="http://www.w3.org/2000/svg" xmlns:xlink="http://www.w3.org/1999/xlink" x="0px" y="0px"
	 viewBox="0 0 24.9 22.8" style="enable-background:new 0 0 24.9 22.8;" xml:space="preserve">
<style type="text/css">
	.st0{fill:#B9BB8B;}
</style>
<path class="st0" d="M8.4,15.1c0.3,0.2,0.5,0.4,0.7,0.7c0.4,0.5,1,0.4,1.5,0.6c1.2,0.5,2.5,0.4,3.7,0.6c0.9,0.2,1.8,0.5,2.4,1.2
	c0.4,0.4,0.5,0.9,0.6,1.4c0.1,0.3,0.2,0.6,0.5,0.8c0.5,0.4,0.8,1,1,1.6c0.1,0.3,0,0.4-0.3,0.3c-0.5-0.1-1.1,0-1.7-0.1
	c-0.1,0-0.1,0-0.2,0c-0.9,0.7-2,0.6-3,0.5c-1.4-0.2-2.4-0.8-3.4-1.8C9.7,20.3,9,20,8.1,20c-0.8,0.1-1.6-0.3-2.2-0.8
	c-0.3-0.2-0.4-0.5-0.6-0.8C4.8,17.3,4,16.5,2.9,16c-1-0.5-1.8-1.1-2.3-2c-0.3-0.5-0.5-1-0.5-1.6C-0.1,11,0.2,9.7,0.8,8.5
	c0.6-1,1.3-1.9,2.3-2.4c0.4-0.2,0.6-0.6,0.7-1C4,4.2,4.7,3.6,5.5,3.3C6,3.1,6.6,2.9,7.2,2.9c0.5,0,0.9-0.2,1.2-0.6
	c0.9-1,2.1-1.6,3.4-1.9c0.9-0.2,1.8-0.4,2.7-0.2c0.6,0.2,1.2,0.1,1.7-0.1c0.5-0.2,1,0,1.5,0.1c0.1,0,0.2,0.1,0.1,0.2
	c-0.6,0.5-0.8,1.2-1.4,1.7c-0.1,0.1-0.2,0.3-0.2,0.5c-0.2,1.7-1.3,2.8-2.9,3.1c-0.7,0.1-1.3,0.2-1.9,0.4c-0.9,0.3-1.7,0.8-2.5,1.4
	C8.5,7.7,8.2,8,7.9,8.2C7.7,8.3,7.6,8.5,7.6,8.7S7.9,9,8,9c0.6,0.2,1.3,0.1,2,0.1c0.9,0,1.9,0.1,2.8,0c1-0.1,1.9-0.4,2.8-0.8
	c1.3-0.6,2.7-1,4.2-0.5c0.8,0.3,1.4,0.9,1.8,1.6c0.1,0.2,0.2,0.2,0.4,0.2c1-0.1,1.9,0.2,2.6,1c0.1,0.1,0.2,0.3,0.3,0.5
	c0,0.1,0.1,0.3,0,0.4c-0.1,0.1-0.2-0.1-0.3-0.1c-0.4-0.1-0.7,0.1-1,0.2c-0.4,0.2-0.7,0.4-1,0.6c-0.6,0.3-0.7,0.9-1,1.3
	c-0.5,0.7-1.2,1.1-2,1.4c-1.8,0.8-3.7,0.7-5.6,0.4c-1.6-0.2-3.3-0.5-4.9-0.5C8.9,14.9,8.7,14.9,8.4,15.1z"/>
</svg>
