<svg width="969" height="314" viewBox="0 0 969 314" fill="none" xmlns="http://www.w3.org/2000/svg">
<g clip-path="url(#clip0_240_8943)">
<path d="M159.569 245.6C159.909 244.48 160.239 238.53 160.019 236.51C159.909 235.5 159.799 233.37 159.909 231.57C159.909 228.65 159.909 228.32 159.459 227.19C159.009 225.84 158.449 224.27 158.229 224.27C158.009 224.27 157.329 227.52 157.329 228.31C157.329 228.65 157.329 229.21 157.439 229.66C157.779 230.89 157.999 235.16 157.889 235.83C157.779 236.28 157.779 236.62 158.109 237.63C158.329 238.53 158.559 239.87 158.669 242.12C158.889 245.82 158.779 247.51 159.119 247.39C159.119 247.28 159.459 246.04 159.569 245.59M150.369 312.91C149.469 312.91 149.249 311.9 149.249 311.79C149.249 311.57 149.359 310.44 149.589 309.55C149.809 308.65 150.039 307.98 150.149 307.08C150.149 306.18 149.929 306.18 150.039 305.17C150.259 303.15 150.599 300.01 149.929 297.2C149.709 296.3 149.029 292.26 148.809 291.48C148.359 289.91 148.019 287.67 147.909 286.32C147.799 284.97 147.909 280.82 148.249 279.25C148.359 278.58 148.249 277.9 148.139 277.23C148.029 276.56 147.799 275.88 147.689 275.1C147.239 271.85 147.129 268.26 146.789 265.11C146.449 262.3 146.339 260.4 145.779 257.26C145.219 254.01 144.879 254.12 144.659 256.59C144.549 257.49 144.659 259.06 144.659 260.29C144.659 262.2 144.439 263.54 144.439 266.01C144.439 270.72 143.879 272.85 143.539 274.31L143.429 275.99L143.539 277.67C144.209 281.15 144.209 282.16 144.209 284.4C144.209 286.2 143.869 287.88 143.649 289.67C143.429 291.24 143.309 292.92 142.979 294.38C142.759 295.84 142.639 298.87 142.759 300.78C142.869 302.46 142.979 303.59 143.209 305.49C143.319 306.84 143.429 307.85 143.549 308.74C144.109 312.44 142.989 312.55 140.299 312.67C138.949 312.78 138.949 312.22 137.269 312.22C135.589 312.22 133.229 312.78 132.449 312.78C131.439 312.78 129.639 312.78 127.959 312.67C127.059 312.67 126.389 311.88 127.059 311.1C127.849 310.31 128.519 310.2 129.299 309.98C131.769 309.19 132.109 308.52 133.449 307.74C134.119 307.29 134.909 307.07 135.469 306.28C136.139 305.16 136.369 302.69 135.919 299.77C135.579 297.08 134.799 294.16 134.459 292.48C134.009 290.35 133.559 286.87 133.449 286.76C133.229 285.86 133.109 281.94 133.339 279.8C133.559 277.89 133.559 277.56 133.339 276.88C132.999 275.76 132.439 272.62 132.109 270.37C131.439 266.44 130.649 265.1 130.429 258.7C130.319 256.01 130.539 253.2 130.429 252.53C130.319 251.74 130.209 249.95 130.209 248.49C130.209 245.8 130.209 244.34 130.999 242.21C131.219 241.54 131.449 240.53 131.559 238.84C131.669 236.48 132.009 236.03 131.899 235.14C131.789 233.91 132.459 231.66 132.799 230.43C133.699 227.85 133.809 226.39 133.249 224.26C132.799 222.46 132.459 220.11 132.239 217.98C132.129 216.86 132.019 215.85 131.899 215.74C131.779 215.63 131.449 215.74 130.779 216.53C130.109 217.32 129.549 217.65 128.199 218.21C127.299 218.66 126.399 219 126.289 219C126.179 219 125.169 219.34 124.159 219.79C122.359 220.58 122.249 220.58 120.789 220.46C118.989 220.35 117.539 220.01 117.089 219.67C116.869 219.56 116.639 218.55 116.299 216.98C115.509 212.83 115.739 207.78 116.859 200.94C117.199 198.92 117.529 197.01 117.529 196.79C117.529 195.89 117.309 195.67 117.189 195.22C116.739 193.87 116.739 191.85 116.739 190.17C116.739 189.5 116.399 187.36 116.399 186.47C116.289 184.9 115.839 183.66 116.619 183.55C117.849 183.33 117.409 187.93 118.299 187.81C118.859 187.81 118.519 184.44 118.639 182.87C118.749 181.75 118.639 180.63 119.429 180.74C120.219 180.74 120.219 181.97 120.219 182.98C120.219 184.44 120.109 186.68 120.559 186.68C121.009 186.68 121.009 184.44 121.229 182.75C121.449 181.07 121.449 179.61 122.239 179.61C123.249 179.61 122.799 181.18 122.799 182.08C122.689 183.76 122.239 186.79 122.689 186.79C123.029 186.79 123.139 186 123.359 184.21C123.579 182.41 123.579 180.73 124.369 180.73C125.269 180.73 125.039 182.19 124.819 184.66C124.709 185.78 124.709 186.79 124.709 187.35C124.709 187.8 124.709 190.27 125.379 190.27C125.599 190.27 125.829 189.6 126.389 189.26C127.509 188.36 129.309 187.46 129.529 188.59C129.639 189.04 129.529 189.04 128.629 189.94C127.839 190.61 127.399 191.4 126.949 192.3C126.609 192.97 126.049 193.98 125.489 194.54C124.479 195.66 124.029 196.9 123.579 199.93C123.019 203.74 123.469 208.23 124.249 208.23C124.359 208.23 124.809 207.89 125.259 207.56C125.709 207.23 126.379 206.77 126.719 206.66C127.169 206.55 127.509 206.1 128.069 205.2C129.079 203.4 131.209 201.83 133.229 201.27C134.019 201.05 134.909 200.82 135.139 200.82C135.699 200.82 136.369 200.48 137.829 199.59C138.279 199.37 139.179 198.8 139.959 198.47C140.739 198.14 141.189 197.91 141.639 197.35C141.979 196.79 141.979 196.23 142.089 195.44C142.199 194.21 142.089 193.76 141.869 192.86C141.649 192.19 141.309 191.51 141.199 191.4C140.859 191.06 139.969 188.71 139.969 188.26C139.969 188.04 139.519 186.8 138.849 184.67C138.739 184.22 138.739 183.88 139.069 182.87C139.289 182.2 139.519 181.3 139.519 180.85C139.519 179.95 140.079 178.94 140.749 178.72C141.089 178.61 141.539 178.05 141.869 177.49C142.429 176.48 142.989 176.14 143.999 176.14C144.339 176.14 145.009 175.8 145.679 175.47C147.919 174.01 149.939 174.24 151.509 176.03C151.849 176.37 152.299 176.7 152.519 176.82C153.309 177.04 153.979 177.72 154.319 178.62C154.539 179.18 154.989 180.19 155.329 180.86C156.339 182.77 156.559 183.55 156.119 184.67C155.899 185.12 155.669 185.79 155.559 186.02C155.449 186.25 155.339 186.69 155.339 187.14C155.339 188.04 154.999 190.17 154.549 190.51C153.649 191.07 152.639 192.98 152.639 194.89C152.639 195.45 152.749 196.57 153.199 197.25C153.759 198.04 154.429 198.04 155.439 198.82C156.339 199.49 157.349 200.17 157.799 200.62C158.589 201.41 158.919 201.52 161.389 201.85C161.949 201.96 162.849 202.64 163.409 203.2C164.079 203.87 164.759 204.55 165.209 205.44C165.659 206.45 165.879 207.57 166.109 208.69C166.219 209.59 166.219 211.27 166.219 211.27C166.219 212.84 166.219 213.96 166.329 214.19C166.779 215.2 166.999 217.33 166.999 221.37C166.999 225.18 166.999 225.63 167.449 227.54C168.119 230.23 168.119 234.38 167.559 236.85C167.339 237.75 166.999 239.21 166.769 240.1C166.549 241 166.319 242.01 166.209 242.34C165.869 243.24 164.639 249.52 164.529 251.2C164.309 253 164.079 253.78 163.859 254.45C163.639 255.12 163.299 255.57 163.069 255.91C162.839 256.25 162.399 256.81 162.059 257.26C161.499 257.82 160.939 258.72 160.379 258.94C160.379 258.94 160.269 261.63 159.929 263.32C159.589 265.56 159.029 268.93 158.699 270.05C158.479 270.84 158.359 271.62 158.249 272.86C158.249 274.09 158.029 274.66 157.909 275.55C158.249 277.91 157.689 279.14 158.249 281.5C158.919 284.19 158.359 288.57 158.139 290.81C157.689 294.29 157.469 296.87 156.909 301.36C156.689 302.82 157.129 303.94 156.909 305.62C156.799 307.3 156.799 308.09 157.249 308.76C157.469 309.1 157.809 309.88 158.149 310.33C158.489 310.78 158.939 311 159.159 311.34C159.269 311.56 159.379 312.01 159.379 312.35C159.379 312.69 159.159 312.91 158.819 312.91" fill="#EDE9CD"/>
<path d="M967.56 134.8C967.34 134.53 967.09 134.28 966.82 134.07C964.92 132.65 963.09 131.13 961.1 129.84C949.92 122.63 938.57 115.74 926.58 109.9C915.75 104.63 904.8 99.6999 893.45 95.6999C883.91 92.3399 874.35 88.9999 864.66 86.1499C852.51 82.5799 840.14 79.8199 827.63 77.8399C814.67 75.7899 801.78 73.2799 788.69 72.1399C782.18 71.5799 775.68 70.9799 769.16 70.5899C762.12 70.1599 755.07 69.8399 748.02 69.6899C741.26 69.5399 734.49 69.4499 727.73 69.7099C720.4 69.9999 713.08 70.6599 705.77 71.2899C700.07 71.7799 694.39 72.5199 688.7 73.0699C680.76 73.8499 672.83 74.8499 664.88 75.2199C656.74 75.5999 648.57 75.4899 640.42 75.3199C633.59 75.1699 626.76 74.5999 619.94 74.2199C618.42 74.1399 616.91 73.9899 615.41 73.7799C604.63 72.2399 593.84 70.7199 583.07 69.0899C575.99 68.0199 568.88 66.9799 561.87 65.5299C532.26 59.3999 502.71 52.9199 472.96 47.4899C471.64 47.1299 470.31 46.8199 468.95 46.5799C468.44 46.4899 467.93 46.4099 467.42 46.3399C455.43 44.7199 443.44 42.3799 431.51 40.2599C427.94 39.6299 424.37 38.8599 420.88 37.8699C416.78 36.6999 412.78 35.1699 408.71 33.8599C405.69 32.8799 402.65 31.9499 399.59 31.0999C393.13 29.2899 386.58 27.8799 379.92 27.0299C376.6 26.6099 373.26 26.2799 369.93 25.8999C363.96 25.2099 357.98 24.6099 351.96 24.3599C340.52 23.8799 329.08 23.2899 317.64 22.8199C310.07 22.5099 302.49 22.1299 294.92 22.1499C286.77 22.1699 278.62 22.7499 270.52 23.7599C262.31 24.7899 254.19 26.4599 246.22 28.7199C238.21 30.9899 229.94 33.0199 221.92 35.4999C220.9 35.6199 219.87 35.7899 218.81 36.0099C210.41 37.7799 202.09 37.2099 193.98 34.5999C184.28 31.4799 175.74 26.2599 168.06 19.5499C164.1 16.0899 159.92 12.8799 155.79 9.61992C151.57 6.28992 146.84 3.76992 141.7 2.30992C134.2 0.179919 126.56 -0.77008 118.74 0.71992C114.46 1.52992 110.21 2.43992 106.31 4.36992C100.65 7.15992 95.36 10.5999 90.51 14.6699C86.83 17.7599 83.44 21.1599 80.29 24.7899C79.1 26.1599 77.63 27.0899 75.87 27.3099C73.51 27.5999 71.62 28.6899 69.91 30.2399C69.37 30.7299 68.71 31.1199 68.08 31.4999C67.45 31.8799 66.71 32.1199 66.13 32.5699C65.39 33.1399 64.72 33.2099 63.9 32.7899C62.82 32.2399 61.73 31.6999 60.59 31.2799C58.2 30.3899 55.96 30.7399 54.27 32.7099C53.31 33.8299 52.58 35.1899 51.97 36.5399C51.26 38.1099 50.77 39.7899 50.23 41.4399C49.97 42.2499 49.5 42.8199 48.78 43.2899C46.54 44.7199 44.36 46.2299 42.12 47.6599C41.55 48.0299 40.85 48.1899 40.23 48.4799C39.25 48.9399 38.28 49.4299 37.3 49.8999C35.96 50.5499 34.67 51.3799 33.26 51.7999C31.4 52.3499 29.93 53.2899 28.69 54.7599C28.08 55.4899 27.29 56.3399 26.44 56.5399C24.3 57.0499 22.85 58.2899 21.65 60.0099C20.66 61.4399 19.24 62.3999 17.63 62.8799C16.01 63.3599 14.92 64.3199 14.04 65.6699C13.38 66.6799 12.69 67.6999 11.89 68.5999C9.76003 70.9499 7.50003 73.1899 5.41003 75.5699C3.23003 78.0699 1.51003 80.8799 0.600027 84.1099C-0.259973 87.1499 -0.139973 90.2599 0.840027 93.1699C1.94003 96.4499 2.97003 99.0599 5.24003 101.73C6.37003 103.06 8.47003 102.83 10.03 103.01C10.76 103.09 11.64 103.02 12.12 103.53C12.55 103.98 12.74 105.29 13.1 105.89C13.98 107.36 15.3 108.57 16.86 109.28C16.47 108.11 16.31 106.87 16.38 105.65C18.52 108.42 20.85 111.32 24.15 112.5C23.05 110.03 22.48 107.32 22.5 104.62C23.61 104.44 24.24 105.78 24.85 106.72C26.23 108.86 28.92 109.65 31.38 110.28C31.12 108.71 29.98 107.45 29.25 106.03C28.23 104.02 29.33 99.9399 31.11 103.38C31.82 104.75 32.64 106.09 33.81 107.09C34.98 108.09 36.53 108.73 38.06 108.5C36.33 107.21 34.47 105.72 34.13 103.59C33.94 102.42 34.54 100.95 35.72 100.88C37.06 100.8 37.72 102.42 38.32 103.62C39.27 105.52 41.13 107.02 43.25 107.19C42.02 105.18 41.38 102.81 41.42 100.45C41.43 99.7599 41.72 98.8699 42.41 98.8999C42.95 98.9199 43.25 99.5099 43.49 99.9899C44.52 102.01 47.03 103.47 49.1 102.54C47.67 101.75 46.57 100.37 46.13 98.7999C45.96 98.1999 45.94 97.4399 46.45 97.0699C47.61 96.2499 49.25 98.7199 50.36 97.8299C50.18 96.2699 49.82 94.6899 51.97 95.7799C53.15 96.3799 54.32 96.9699 55.5 97.5699C54.5 96.6799 53.93 95.3199 54 93.9799C54 93.8699 54.02 93.7399 54.09 93.6499C54.28 93.3799 54.7 93.5499 54.99 93.7199C55.49 94.0199 56.03 94.2699 56.59 94.4599C56.77 94.5199 57 94.5599 57.13 94.4199C57.2 94.3299 57.21 94.2099 57.21 94.0899C57.21 93.6399 57.21 93.1899 57.21 92.7399C58.06 92.6999 58.91 92.7399 59.75 92.8599C59.59 92.1099 59.56 91.3299 59.66 90.5699C60.09 90.8399 60.59 90.9699 61.1 90.9399C61.11 90.4499 61.13 89.9499 61.14 89.4599C61.34 89.4499 61.54 89.4299 61.74 89.4199C61.26 89.4499 62.95 86.9499 63.23 86.7199C66.46 84.1099 69.54 81.3099 73.16 79.1799C74.64 78.3099 75.61 78.4899 77.32 80.0899C79.25 81.8899 81.56 83.1899 84.04 84.0999C84.34 84.2099 84.64 84.3299 84.94 84.4399C83.77 87.2999 82.5 90.1099 80.94 92.9699C78.78 97.0899 76.4 101.1 73.81 104.97C73.29 105.74 72.17 108.21 70.98 107.96C70.57 107.87 70.15 107.65 69.75 107.79C69.59 108.52 69.7 109.3 70.07 109.95C69.7 109.99 69.33 110.03 68.96 110.06C68.92 110.06 68.87 110.07 68.84 110.1C68.8 110.14 68.8 110.2 68.8 110.25C68.8 111.31 69.12 112.05 68.27 112.65C68.11 112.77 66.35 113.18 66.33 112.88C66.37 113.79 66.27 114.7 66.03 115.58C65.66 115.59 65.28 115.6 64.91 115.61C64.73 116.28 64.54 116.94 64.36 117.61C63.93 117.21 63.24 117.77 63.11 118.34C62.98 118.91 63.03 119.59 62.61 120C61.95 120.01 61.29 120.03 60.64 120.04C60.41 121.02 60.31 122.03 60.35 123.04C59.56 123.01 58.77 122.97 57.98 122.94C57.96 123.96 57.94 124.97 57.92 125.99C57.38 125.59 56.56 125.6 56.03 126.02C55.5 126.44 55.3 127.23 55.56 127.85C54.6 128.03 53.61 128.03 52.66 127.85C52.44 129.13 52.22 130.41 52 131.69C51.34 131.51 50.69 131.34 50.03 131.16C49.7 132.14 49.5 133.17 49.45 134.21C48.64 134.1 47.83 133.99 47.03 133.88C46.86 133.86 46.68 133.84 46.54 133.94C46.4 134.04 46.36 134.22 46.32 134.38C46.18 135.02 46.04 135.66 45.91 136.31C45 136.47 44.07 136.54 43.14 136.5C43.58 137.46 43.89 139.04 43.41 140.05C43.04 140.84 42.14 141.23 41.45 141.78C40.07 142.9 38.7 144.38 39.63 146.25C41.5 149.17 43.98 151.46 47.36 152.3C49.75 152.9 52.28 152.95 54.75 153.15C56.18 153.26 57.46 152.81 58.61 151.87C59.97 150.76 61.35 149.66 62.81 148.68C69.73 144.03 75.97 138.61 81.67 132.54C84.99 129 88.28 125.41 92.4 122.74C99.15 118.38 105.91 114.05 112.64 109.67C113.94 108.82 115.22 107.91 116.38 106.87C119.4 104.17 122.34 101.4 125.31 98.6499C126.94 97.1399 128.74 95.9599 130.87 95.2399C132.09 94.8299 133.3 94.3899 134.48 93.9199C136.4 93.8899 138.32 93.8999 140.24 94.0099C145.39 94.3099 150.26 95.5699 154.89 97.8399C159.77 100.23 164.64 102.65 169.6 104.84C176.83 108.03 184.05 111.67 191.28 114.92C192.59 115.51 193.9 116.08 195.21 116.64C200.06 125.99 201 133.99 210.69 140.84C214.66 143.65 218.81 146.26 223.38 148.1C224.47 148.54 225.49 149.17 226.34 149.99C227.39 151 228.45 151.86 229.52 152.62C230.39 153.95 231.5 155.29 232.91 156.7C234.22 158.01 235.07 159.52 235.51 161.32C236.14 163.93 237.29 166.32 238.74 168.57C239.52 169.78 240.54 170.92 241.01 172.24C242.18 175.5 243.09 178.85 244.1 182.16C244.18 182.43 244.19 182.74 244.17 183.02C243.97 185.53 244.74 187.83 245.76 190.05C246.62 191.94 247.05 193.77 246.53 195.9C245.95 198.27 246.89 199.91 249.11 201.1C249.06 201.71 249.12 202.41 248.95 203.05C248.14 206.01 246.73 208.62 244.4 210.68C244.12 210.92 243.9 211.23 243.41 211.79C247.1 211.55 249.84 210.31 251.93 207.62C253.53 205.58 254.11 203.2 254.58 200.74C254.66 200.32 254.78 199.78 255.08 199.56C256.23 198.72 256.2 197.58 255.94 196.43C255.68 195.25 255.28 194.1 254.89 192.95C254.7 192.4 254.6 191.95 255.22 191.68C256.32 191.76 256.65 192.59 256.95 193.41C257.48 194.88 258.34 196.1 259.68 196.89C261.65 198.04 262.66 199.83 263.46 201.89C264.04 203.38 264.93 204.76 265.77 206.13C266.33 207.05 267.25 207.73 268.31 207.77C270.03 207.83 270.74 209.02 271.3 210.26C272.55 213 273.57 215.84 273.36 218.94C273.34 219.24 273.43 219.55 273.48 219.88C273.74 219.81 273.88 219.81 273.94 219.74C274.13 219.52 274.3 219.29 274.44 219.04C277.03 214.34 277.08 209.69 274.21 205.08C273.88 204.55 273.37 203.95 273.4 203.42C273.48 201.92 272.67 200.95 271.84 199.88C270.28 197.87 268.61 195.92 267.35 193.74C265.98 191.37 264.67 189.03 262.68 187.12C262.15 186.61 261.79 185.92 261.4 185.27C260.06 183.05 258.69 180.84 257.42 178.58C256.77 177.43 256.3 176.17 255.79 174.95C255.01 173.08 254.29 171.19 253.52 169.33C252.14 166.01 251.07 162.65 250.1 159.27C250.29 159.31 250.45 159.34 250.6 159.39C258.42 161.65 266.22 164.03 274.08 166.17C281.55 168.21 289.13 169.89 296.77 171.16C300.56 171.79 304.37 172.24 308.18 172.73C311.26 173.13 313.18 174.66 315.94 176.2C316.73 176.64 317.54 177.06 318.34 177.47C318.09 184.9 319.17 192.56 320.41 198.88C321.51 204.44 323.29 209.83 324.97 215.24C326.48 220.11 327.78 225.05 329.01 230C329.17 230.64 329.31 230.86 329.49 231.18C329.6 232.76 329.68 234.35 329.61 235.95C329.44 239.74 328.69 243.44 326.79 246.81C326.54 247.26 326.32 247.72 326.12 248.2C325 250.86 324 253.53 323.5 256.4C323.21 258.09 322.73 259.79 322.05 261.36C321.04 263.72 319.37 265.67 317.53 267.45C315.66 269.26 313.79 271.07 311.89 272.85C308.93 275.63 305.97 278.4 302.99 281.15C302.03 282 301.08 282.89 300.08 283.76C297.04 286.41 293.36 288.36 289.88 290.41C288.52 290.92 287.2 291.57 285.82 292.11C283.15 293.15 280.56 294.4 277.98 295.64C276.12 296.54 274.15 297.39 272.14 297.78C267.48 298.67 262.76 299.59 258.04 300.14C256.9 300.27 255.75 300.39 254.65 300.6C250.36 301.14 246.04 301.2 241.71 300.78C240.3 300.64 238.82 300.3 237.55 301.36C237.39 301.49 237.11 301.49 236.88 301.52C232.47 302.17 228.8 304.3 225.8 307.48C224.68 308.66 224.04 310.3 223.23 311.77C223.1 312 223.18 312.54 223.36 312.69C223.63 312.9 224.13 313.04 224.43 312.94C224.96 312.75 225.43 312.37 225.89 312.03C228.51 310.09 231.54 309.3 234.87 308.72C234.77 309.38 234.7 309.81 234.63 310.25C234.37 311.9 235.04 312.92 236.7 313.27C237.37 313.41 238.08 313.44 238.77 313.43C243.5 313.41 250.13 314.46 255.65 313.59C258.87 313.74 262.37 313.34 264.64 313.33C270.71 313.3 276.77 313.25 282.84 313.18C286.47 313.14 290.1 312.64 293.71 312.19C297.84 311.67 297.3 311.36 298.38 308.33C298.92 306.83 299.63 305.47 300.84 304.42C301.12 304.18 301.43 304 301.75 303.84C301.84 303.84 301.93 303.84 302.02 303.84C303.76 303.91 304.98 303.02 306.1 301.87C307.17 300.77 308.49 299.83 308.29 297.98C310.14 298.01 311.41 297.09 312.4 295.84C313.77 294.1 314.93 292.22 316.24 290.49C317.02 289.47 318.03 288.65 318.89 287.67C320.72 286.25 322.59 284.87 324.34 283.36C326.7 281.32 329.25 279.37 331.1 276.92C336.09 270.33 340.7 263.46 345.58 256.78C347.71 253.86 348.23 250.71 347.76 247.26C347.44 244.91 347.04 242.57 346.94 240.21C346.68 234.2 348.99 229.53 351.03 224.52C351.33 224.11 351.62 223.7 351.94 223.28C355.83 217.97 359.44 212.44 363.15 206.99C366.01 202.79 367.41 198.04 368.14 193.07C368.47 190.82 368.8 188.52 369.07 186.19C378.53 185.61 387.96 184.21 397.33 182.56C398.47 184 399.92 185.33 400.96 186.51C403.36 189.23 405.85 191.87 408.67 194.17C410.09 195.33 411.57 196.5 413.2 197.33C416.95 199.25 420.77 201.07 424.64 202.73C429.2 204.69 433.85 206.41 438.72 207.57C446.9 209.51 455.16 210.74 463.55 211.28C467.33 211.52 474.18 213.46 479.29 213.09C485.01 214.05 489.94 216.58 493.7 221.21C494.14 221.75 494.68 222.2 495.12 222.73C496.72 224.71 498.75 226.12 501.02 227.19C502.22 227.76 503.47 228.21 504.72 228.65C507.433 229.603 509.6 231.26 511.22 233.62C511.32 233.77 511.48 234.01 511.57 234.16C515.37 240.46 519.28 246.7 522.92 253.09C525.47 257.56 527.46 262.34 528.81 267.3C528.96 267.85 529.11 268.41 529.26 268.95C529.33 269.31 529.4 269.67 529.47 270C530.2 273.35 531.63 276.28 533.81 278.9C534.11 279.27 534.41 279.64 534.69 280.02C535.64 281.36 536.46 282.73 536.96 284.18C537.16 284.76 537.38 285.35 537.64 285.93C537.6 287.09 537.51 288.25 537.23 289.4C536.95 290.57 536.87 291.8 536.75 293.01C536.5 295.51 535.41 297.13 534.4 299.12C532.89 301.05 530.89 302.33 528.48 302.62C526.18 302.9 523.96 303.43 521.71 303.87C516.91 304.8 512.87 306.92 510.68 311.61C510.42 312.16 509.85 312.71 510.39 313.35C510.97 314.05 511.67 313.58 512.31 313.39C512.86 313.22 513.38 312.95 513.93 312.77C515.68 312.17 517.42 311.57 519.19 311.03C519.82 310.84 520.5 310.83 521.18 310.73C521.09 312.81 521.31 313.3 522.83 313.26C526.44 313.17 530.09 313.88 533.67 312.85C533.93 312.78 534.24 312.91 534.52 312.88C535.66 312.79 536.83 312.83 537.91 312.53C540.1 311.92 542.02 310.74 543.88 309.43C545.04 308.6 546.14 307.71 547.41 306.99C549.12 306.02 550.57 304.58 550.67 302.34C551.71 301.66 552.68 300.94 553.41 299.85C554.54 298.15 553.99 296.41 554.65 294.8C555.17 293.54 555.69 292.7 555.85 291.79C556.18 289.98 556.49 288.13 556.47 286.3C556.45 284.38 556.22 282.17 555.56 280.17C555.7 279.75 555.84 279.38 555.86 279C556.11 275.5 555.51 272.08 554.8 268.68C554.38 266.67 553.21 265.34 551.16 264.72C549.76 264.29 548.43 263.61 547.1 262.96C546.02 262.05 544.83 261.3 543.91 260.12C543.91 260.1 543.89 260.08 543.88 260.06C543.63 259.5 543.36 259.1 543.06 258.75C542.02 256.79 541.35 254.32 540.53 252.44C540.36 252.05 540.29 251.62 540.06 250.81C540.97 251.16 541.54 251.35 542.07 251.59C542.65 251.85 543.17 252.25 543.76 252.43C547.87 253.69 551.63 252.8 555.13 250.46C555.58 250.16 555.92 249.77 555.54 249C552.35 248.64 548.94 248.93 546.26 247.66C545.56 246.28 545.28 245.02 544.5 244.35C543.45 243.44 542.04 242.9 540.73 242.33C539.96 242 537.85 241.11 537.09 240.53C536.95 240.43 536.81 240.31 536.65 240.25C534.3 239.39 533.04 237.54 532.09 235.36C531.67 234.41 531.11 233.52 530.63 232.6C528.1 227.78 525.19 223.23 521.42 219.29C519.85 217.65 517.29 214.97 515.76 213.3C513.62 210.96 511.48 208.62 509.37 206.25C507.06 203.66 504.03 202.44 500.75 201.79C497.25 201.09 494.01 199.81 490.85 198.2C487.4 196.44 484.73 193.87 482.6 190.72C481.83 189.58 481.11 188.5 480.33 187.47C479.14 185.44 477.89 183.43 476.55 181.41C474.54 178.37 472.5 175.36 470.41 172.38C468.81 170.1 466.93 168.08 464.71 166.36C461.56 163.92 458.1 162.06 454.81 159.9C455.53 158.21 455.8 156.47 456.2 154.73C456.44 154.38 456.85 154.04 457.21 153.86C458.76 153.08 460.38 152.46 461.95 151.72C469.01 148.34 476.35 145.84 483.98 144C493.35 141.74 502.62 139.03 511.93 136.5C513.94 135.95 515.89 135.2 517.91 134.72C529.27 132.03 540.62 129.35 552.1 127.18C563.88 124.96 575.75 123.63 587.67 122.57C591.93 122.19 596.2 121.89 600.46 121.47C609.09 120.61 617.71 119.75 626.33 118.77C632.99 118.02 639.67 117.31 646.27 116.21C659.95 113.91 673.59 111.4 687.23 108.91C695.98 107.31 704.7 105.52 713.45 103.91C722.66 102.21 731.9 100.71 741.25 99.9399C748.97 99.3099 756.68 98.5499 764.4 97.8999C767.49 97.6399 770.59 97.5799 773.68 97.3399C779.77 96.8799 785.89 96.7899 791.99 97.0099C803.19 97.4099 814.39 97.8499 825.59 98.2399C832.3 98.4699 839 98.7099 845.66 99.5299C856.34 100.85 866.94 102.64 877.44 104.98C885.05 106.68 892.73 108.1 900.17 110.51C907.09 112.76 914.15 114.62 920.88 117.45C928.18 120.52 935.49 123.57 942.75 126.71C945.82 128.04 948.82 129.55 951.82 131.04C955.75 133 959.65 135.03 963.58 136.99C964.34 137.37 965.2 137.59 966.04 137.76C966.82 137.92 967.56 137.69 967.97 136.92C968.37 136.17 968.17 135.46 967.66 134.83L967.56 134.8Z" fill="#EDE9CD"/>
</g>
<defs>
<clipPath id="clip0_240_8943">
<rect width="968.08" height="313.91" fill="white"/>
</clipPath>
</defs>
</svg>
