<svg width="675" height="361" viewBox="0 0 675 361" fill="none" xmlns="http://www.w3.org/2000/svg">
<g clip-path="url(#clip0_240_6320)">
<path d="M444.902 71.1001C454.232 71.4001 463.462 73.2801 472.492 75.6201C477.052 76.8001 481.482 78.5001 486.162 78.6101C489.432 78.6901 492.702 78.4101 495.972 78.6101C499.242 78.8101 502.262 79.8301 505.452 80.8501C506.132 81.0701 506.812 81.2901 507.492 81.5001C508.152 81.7101 508.812 81.9201 509.482 82.1401C510.602 82.5001 511.732 82.8601 512.852 83.2201C513.182 83.3301 513.512 83.4301 513.842 83.5301C518.182 84.7701 522.612 83.7201 527.032 83.7601C528.402 83.7701 529.762 83.8001 531.082 84.1901C532.952 84.7501 534.842 84.7301 536.752 84.4601C537.512 84.3501 538.292 84.3401 539.062 84.3101C539.422 84.3001 539.892 84.2701 540.002 84.6901C540.142 85.2101 539.632 85.3801 539.282 85.5201C536.442 86.6601 533.582 87.6701 530.432 87.2701C528.542 87.0301 526.742 87.6701 524.952 88.1701C521.142 89.2301 517.492 90.7601 513.832 92.2401C513.712 92.2901 513.622 92.3901 513.432 92.5201C514.062 93.0701 514.682 93.7801 515.372 94.2401C516.062 94.7001 516.812 94.6601 517.562 95.0001C518.462 95.4001 518.972 96.5301 519.942 96.6601C520.062 96.6801 520.192 96.6801 520.312 96.7201C520.482 96.7701 520.612 96.9001 520.742 97.0201C523.442 99.5501 527.202 101.23 530.392 103.07C531.092 103.47 531.932 103.65 532.722 103.63C535.672 103.57 538.622 103.68 541.572 103.58C544.652 103.48 547.732 103.36 550.802 103.13C552.312 103.02 553.642 103.65 555.042 103.95C557.132 104.4 559.112 105.2 561.162 105.77C561.992 106 562.842 106.04 563.722 105.94C565.212 105.78 566.712 105.83 568.212 106.04C570.102 106.3 571.992 106.65 573.912 106.71C575.792 106.77 577.692 106.6 579.542 106.9C580.002 106.97 580.472 107.08 580.862 107.33C581.582 107.78 581.362 108.64 582.272 108.62C585.692 108.56 589.102 108.47 592.522 108.55C594.692 108.6 596.852 108.22 599.042 108.55C600.412 108.76 601.852 108.7 603.252 108.45C603.602 108.39 603.982 108.35 604.342 108.4C607.202 108.78 610.052 108.19 612.912 108.32C613.272 108.34 613.652 108.35 614.002 108.28C616.392 107.78 618.702 108.15 620.992 108.82C622.962 109.4 624.992 109.64 627.012 109.97C627.822 110.1 628.642 110.18 629.432 110.38C632.432 111.15 635.482 111.62 638.542 112.04C640.872 112.36 643.222 112.64 645.602 112.27C647.322 112 649.042 112.41 650.762 112.57C652.792 112.76 654.822 113.07 656.852 113.25C659.452 113.48 662.022 113.05 664.602 112.86C666.272 112.73 667.952 112.46 669.582 113.13C670.062 113.33 670.562 113.19 671.052 113.07C671.432 112.98 671.752 112.62 672.322 112.83C671.882 113.67 671.192 114.1 670.372 114.38C669.862 114.56 669.322 114.7 668.832 114.93C668.122 115.26 668.022 115.78 668.662 116.13C669.992 116.85 671.232 117.91 672.932 117.63C673.192 117.59 673.472 117.63 673.742 117.63C673.782 117.63 673.812 117.67 673.952 117.76C673.262 118.62 672.312 118.79 671.332 118.81C670.182 118.83 669.082 119.07 667.982 119.36C667.592 119.46 667.202 119.62 666.852 119.83C666.272 120.16 666.262 120.36 666.752 120.86C667.692 121.81 668.752 122.43 670.172 122.05C670.382 121.99 670.622 121.97 670.842 122.28C670.282 123.03 669.442 123.16 668.592 123.18C667.592 123.2 666.592 123.12 665.592 123.15C664.942 123.17 663.982 123 663.822 123.76C663.682 124.41 664.522 124.83 665.052 125.25C665.702 125.76 666.512 125.92 667.322 126.22C667.012 126.85 666.492 126.78 666.112 126.7C663.922 126.22 661.592 126.28 659.642 124.87C656.922 122.9 653.682 122.28 650.492 121.53C647.752 120.89 644.992 120.31 642.372 119.24C640.422 118.44 638.322 118.21 636.282 117.81C632.142 117 627.962 116.4 623.742 116.19C622.402 116.12 621.032 116.03 619.672 116.24C618.952 116.35 618.222 116.31 617.502 116.21C612.682 115.57 607.872 115.03 602.992 114.89C599.682 114.79 596.372 114.74 593.062 114.76C589.572 114.78 586.092 114.98 582.622 115.47C581.942 115.57 581.002 115.31 580.412 115.7C580.102 115.9 579.922 116.25 579.672 116.52C578.922 117.32 577.672 117.31 576.572 117.28C574.542 117.23 572.312 117.19 570.342 117.71C566.392 118.75 562.422 119.71 558.412 120.51C556.212 120.95 553.962 121.19 551.662 121.08C547.042 120.86 542.742 119.47 538.462 117.95C535.682 116.96 532.812 116.65 529.922 116.36C528.122 116.18 526.362 115.84 524.532 115.9C522.162 115.99 519.842 116.5 517.472 116.24C515.102 115.98 512.692 115.33 510.312 115.88C509.852 115.98 509.412 116.13 508.942 116.16C508.552 116.19 508.152 116.12 507.762 116.06C505.062 115.64 502.412 115.2 499.682 115.09C496.772 114.96 493.832 114.95 491.022 114.07C490.172 113.81 489.362 113.7 488.492 113.99C487.972 114.16 487.512 114.31 487.122 114.77C486.642 115.33 485.612 115.19 485.302 116.06C485.302 116.08 485.222 116.09 485.172 116.09C484.112 116.03 483.082 116.59 481.872 116.34C482.462 116.96 482.992 117.67 483.662 118.19C486.192 120.14 488.322 122.5 490.432 124.86C491.392 125.94 492.192 127.17 492.982 128.39C493.832 129.69 494.792 130.9 495.852 132.02C497.222 133.47 498.472 135.03 499.802 136.52C501.692 138.66 503.632 140.77 505.382 143.04C508.562 147.19 512.032 151.09 515.502 154.99C517.922 157.7 520.412 160.35 522.522 163.31C524.362 165.89 526.202 168.48 527.812 171.23C528.522 172.44 529.462 173.51 530.272 174.66C531.892 176.96 533.452 179.3 535.102 181.57C536.382 183.33 537.662 185.08 538.822 186.93C539.662 188.26 540.762 189.44 541.682 190.74C542.202 191.48 542.852 192.13 543.092 193.05C543.142 193.26 543.312 193.45 543.472 193.61C546.062 196.31 547.982 199.53 550.272 202.45C551.692 204.27 553.122 206.1 554.412 208.02C554.962 208.85 555.732 209.53 556.412 210.24C557.852 211.76 559.022 213.49 560.422 215.05C561.782 216.56 563.122 218.11 564.442 219.67C566.022 221.54 567.722 223.32 569.322 225.17C570.752 226.82 572.342 228.31 573.762 229.96C577.082 233.8 580.652 237.42 583.862 241.35C586.212 244.24 588.602 247.09 590.952 249.98C593.272 252.83 595.432 255.8 597.732 258.67C600.712 262.38 603.342 266.38 606.122 270.26C608.112 273.03 610.092 275.79 612.082 278.56C612.402 279 612.772 279.42 613.002 279.91C613.632 281.24 614.512 282.36 615.452 283.49C617.802 286.32 619.712 289.48 621.822 292.49C623.362 294.68 625.032 296.78 626.702 298.87C627.862 300.33 628.782 301.95 629.932 303.42C632.782 307.07 635.542 310.79 638.342 314.47C638.672 314.9 639.042 315.31 639.412 315.71C640.312 316.67 641.222 317.63 641.772 318.86C641.882 319.11 642.052 319.33 642.222 319.54C644.382 322.23 646.432 325.02 648.762 327.56C650.552 329.51 652.002 331.69 653.702 333.69C656.822 337.35 659.922 341.02 662.972 344.74C666.142 348.6 669.562 352.26 672.472 356.34C673.002 357.08 673.692 357.69 674.122 358.51C674.342 358.92 674.552 359.33 674.262 359.79C673.952 360.28 673.462 360.34 672.942 360.29C671.612 360.15 670.382 359.68 669.162 359.17C665.302 357.55 661.582 355.65 657.932 353.59C652.472 350.5 647.132 347.2 641.892 343.76C635.732 339.72 629.772 335.41 623.842 331.04C621.282 329.16 618.862 327.08 616.332 325.15C612.572 322.29 609.072 319.1 605.462 316.07C602.682 313.74 600.092 311.18 597.392 308.75C595.062 306.65 592.892 304.39 590.502 302.35C588.012 300.23 585.752 297.84 583.412 295.56C579.572 291.82 575.752 288.06 571.912 284.31C567.422 279.93 562.982 275.5 558.432 271.18C554.742 267.67 551.282 263.93 547.412 260.61C544.722 258.31 542.102 255.92 539.442 253.59C536.602 251.11 533.702 248.71 530.852 246.24C527.732 243.53 524.502 240.95 521.252 238.4C519.142 236.75 517.112 234.99 515.132 233.19C509.072 227.69 503.342 221.84 497.672 215.95C492.192 210.25 486.772 204.49 481.132 198.95C477.752 195.64 474.232 192.49 470.452 189.64C469.832 189.18 469.192 188.74 468.522 188.37C467.312 187.69 467.242 187.77 466.432 188.84C464.862 190.91 464.312 193.31 463.872 195.8C463.562 197.54 463.792 199.24 464.032 200.95C464.172 202.01 464.042 203.01 463.772 204.07C461.992 202.18 461.072 199.99 460.932 197.51C460.872 196.43 461.112 195.34 461.152 194.25C461.232 192.25 461.752 190.42 462.882 188.75C463.282 188.16 463.562 187.49 463.732 186.68C463.062 186.66 462.752 187.1 462.352 187.34C461.842 187.64 461.382 188.02 460.882 188.33C459.782 189.02 458.852 189.88 458.322 191.08C457.652 192.59 456.402 193.55 455.092 194.56C454.772 192.56 455.672 190.88 456.202 189.1C456.802 187.07 458.472 186.11 459.922 184.91C459.742 184.62 459.612 184.84 459.492 184.9C459.322 184.97 459.182 185.09 459.022 185.17C457.572 185.93 456.142 186.73 454.672 187.45C453.812 187.87 452.902 188.2 451.922 187.73C451.262 187.41 450.702 187.9 450.092 188C449.802 187.57 450.172 187.39 450.352 187.18C451.382 185.99 452.752 185.25 454.072 184.45C455.592 183.54 457.172 182.72 458.562 181.61C459.532 180.84 459.632 180.55 459.142 179.39C458.472 177.8 457.742 176.23 457.042 174.66C455.782 171.84 454.772 168.91 453.662 166.03C452.452 162.88 450.842 159.93 449.102 157.05C447.182 153.85 445.162 150.71 442.722 147.88C440.532 145.34 438.332 142.77 435.062 141.48C433.932 141.04 433.102 140.15 432.322 139.27C430.812 137.58 428.072 139.01 426.142 139.24C422.452 139.67 418.712 140.09 415.042 139.52C411.692 138.99 408.512 137.64 405.572 135.93C403.812 134.91 402.132 133.76 400.612 132.4C399.442 131.35 398.012 130.44 396.822 129.33C396.222 128.77 395.392 128.47 394.722 127.98C394.292 127.66 393.822 127.76 393.412 128.22C391.622 130.22 389.932 132.28 388.562 134.61C386.562 138.03 385.482 141.77 384.612 145.59C383.552 150.29 382.572 155 381.902 159.77C381.562 162.25 381.362 164.73 381.212 167.23C381.002 170.77 380.732 174.3 380.642 177.84C380.532 182.08 381.032 186.28 381.542 190.47C382.102 195.07 382.612 199.67 383.342 204.25C384.402 210.81 385.942 217.26 387.922 223.6C388.412 225.16 388.862 226.73 389.272 228.32C389.452 229.01 389.732 229.84 389.102 230.38C388.432 230.96 387.622 230.55 386.902 230.3C384.482 229.45 382.302 228.12 380.202 226.68C372.812 221.61 366.512 215.47 361.582 207.94C357.772 202.12 354.002 196.28 350.672 190.17C349.302 187.66 348.122 185.04 346.842 182.48C345.972 180.73 345.082 178.98 343.992 177.36C341.602 173.79 340.212 169.82 339.102 165.72C338.062 161.91 337.172 158.05 335.622 154.39C335.162 153.3 334.622 152.25 333.932 151.28C333.042 150.04 332.482 149.96 331.202 150.74C328.832 152.18 326.582 153.79 324.482 155.6C324.212 155.84 323.922 156.09 323.752 156.4C323.122 157.59 322.112 158.15 320.642 158.28C321.592 155.48 323.542 153.51 325.562 151.59C325.502 151.52 325.442 151.45 325.382 151.38C324.462 151.91 323.572 152.47 322.632 152.95C321.672 153.43 320.552 152.89 319.362 153.6C319.592 152.51 320.232 152.13 320.872 151.77C321.542 151.4 322.212 151.04 322.812 150.37C321.592 150 320.482 149.69 319.152 149.93C319.442 148.97 320.162 148.74 320.802 148.6C322.412 148.25 323.932 147.64 325.482 147.13C326.692 146.73 327.862 146.24 329.062 145.8C330.192 145.39 330.982 144.67 331.442 143.53C332.272 141.48 333.582 139.76 335.092 138.14C337.292 135.78 339.622 133.53 341.522 130.92C342.702 129.3 343.862 127.67 344.732 125.86C344.942 125.41 345.252 124.95 345.022 124.44C344.252 122.71 345.162 121.47 346.192 120.28C346.692 119.71 347.262 119.2 347.792 118.68C346.422 116.87 335.702 117.64 333.522 117.31C326.802 116.28 320.092 115.26 313.372 114.23C299.592 112.12 285.802 110.02 272.022 107.91C266.752 107.1 261.472 106.3 256.232 105.29C227.422 99.7801 200.112 88.4501 173.022 77.2001C159.542 71.6001 146.802 64.7301 133.722 58.5101C129.492 56.5001 125.252 54.5201 120.912 52.7801C116.652 51.0801 112.292 49.6401 107.942 48.2001C104.662 47.1201 101.402 46.0001 98.2718 44.5101C97.3718 44.0801 96.4818 43.9501 95.5018 44.1801C94.4718 44.4201 93.4218 44.3801 92.3918 44.1701C87.5418 43.1601 82.6918 42.1801 77.9018 40.9201C75.9218 40.4001 73.9818 39.7601 72.0618 39.0601C65.1718 36.5601 58.0818 34.7701 50.9818 32.9801C43.2718 31.0401 35.6418 28.7801 28.0318 26.4601C20.0818 24.0301 12.1018 21.6701 4.08178 19.4601C3.34178 19.2601 2.57178 19.1201 1.83178 18.9201C1.39178 18.8101 0.961782 18.6701 0.541782 18.5001C0.231782 18.3701 0.0117819 18.1301 0.0617819 17.7601C0.111782 17.4001 0.371782 17.1901 0.691782 17.1301C1.13178 17.0501 1.59178 17.0001 2.04178 17.0001C5.54178 17.0001 9.04178 17.0201 12.5418 17.0201C19.4518 17.0201 26.3518 17.0801 33.2618 16.9601C36.1518 16.9101 39.0618 16.8501 41.9518 16.5301C42.7118 16.4501 43.4918 16.5001 44.2718 16.4901C47.5918 16.4401 50.8918 16.2401 54.2018 15.9801C54.9718 15.9201 55.7418 15.9601 56.5118 15.9401C60.5518 15.8201 64.5818 15.5101 68.6118 15.2901C71.7818 15.1201 74.9518 14.9301 78.1218 14.6301C80.0218 14.4501 81.9318 14.4401 83.8318 14.3001C88.3618 13.9701 92.9118 13.8901 97.4418 13.6301C102.112 13.3601 106.782 13.0701 111.452 12.9001C114.112 12.8001 115.712 11.3701 116.722 9.08007C117.142 8.12007 117.422 7.11007 117.622 6.08007C117.882 4.73007 118.442 3.48007 118.992 2.24007C119.612 0.84007 120.812 0.27007 122.252 0.12007C124.632 -0.12993 126.932 0.16007 129.222 0.89007C131.582 1.64007 133.932 2.43007 136.362 2.98007C138.222 3.40007 140.092 3.99007 141.602 5.42007C142.352 6.12007 143.522 6.39007 144.392 7.06007C145.892 8.23007 147.412 9.37007 148.852 10.6301C151.212 12.6901 153.332 15.0001 155.482 17.2601C157.952 19.8601 160.572 22.3001 163.372 24.5101C165.862 26.4801 168.572 28.1601 171.332 29.7401C172.282 30.2901 173.192 30.8601 173.942 31.6801C175.212 33.0601 176.722 34.1501 178.242 35.2401C179.092 35.8501 179.872 36.5401 180.542 37.3501C188.242 46.8201 203.962 51.9401 215.032 56.4101C228.352 61.7901 242.152 65.9501 256.232 68.8101C275.432 72.7101 295.032 74.1801 314.282 77.8001C323.562 79.5501 332.022 81.5801 341.452 82.0701C351.582 82.6001 361.752 82.2501 371.852 81.3601C386.972 80.0401 401.932 77.3201 416.812 74.4101C424.132 72.9801 431.482 71.5001 438.932 71.1601C440.942 71.0701 442.952 71.0601 444.962 71.1201L444.902 71.1001Z" fill="#EDE9CD"/>
<path d="M187.211 322.46C187.391 321.85 187.581 318.6 187.461 317.5C187.401 316.95 187.341 315.78 187.401 314.8C187.401 313.21 187.401 313.02 187.151 312.41C186.901 311.67 186.601 310.82 186.481 310.82C186.361 310.82 185.991 312.6 185.991 313.03C185.991 313.21 185.991 313.52 186.051 313.77C186.231 314.44 186.361 316.77 186.301 317.14C186.241 317.39 186.241 317.57 186.421 318.12C186.541 318.61 186.671 319.35 186.731 320.57C186.851 322.59 186.791 323.51 186.981 323.45C186.981 323.39 187.161 322.71 187.231 322.47M182.201 359.25C181.711 359.25 181.591 358.7 181.591 358.64C181.591 358.52 181.651 357.9 181.771 357.41C181.891 356.92 182.021 356.55 182.081 356.06C182.081 355.57 181.961 355.57 182.021 355.02C182.141 353.92 182.331 352.2 181.961 350.67C181.841 350.18 181.471 347.97 181.351 347.54C181.101 346.68 180.921 345.46 180.861 344.72C180.801 343.98 180.861 341.72 181.041 340.86C181.101 340.49 181.041 340.12 180.981 339.76C180.921 339.4 180.801 339.02 180.731 338.6C180.481 336.82 180.421 334.86 180.241 333.14C180.061 331.61 179.991 330.57 179.691 328.85C179.381 327.07 179.201 327.13 179.081 328.48C179.021 328.97 179.081 329.83 179.081 330.5C179.081 331.54 178.961 332.28 178.961 333.63C178.961 336.2 178.651 337.37 178.471 338.17L178.411 339.09L178.471 340.01C178.841 341.91 178.841 342.46 178.841 343.69C178.841 344.67 178.661 345.59 178.531 346.57C178.411 347.43 178.351 348.35 178.161 349.14C178.041 349.94 177.981 351.59 178.041 352.63C178.101 353.55 178.161 354.16 178.291 355.2C178.351 355.94 178.411 356.49 178.471 356.98C178.781 359 178.161 359.06 176.691 359.13C175.951 359.19 175.951 358.88 175.041 358.88C174.131 358.88 172.831 359.19 172.401 359.19C171.851 359.19 170.871 359.19 169.951 359.13C169.461 359.13 169.091 358.7 169.461 358.27C169.891 357.84 170.261 357.78 170.691 357.66C172.041 357.23 172.221 356.86 172.961 356.43C173.331 356.18 173.761 356.06 174.061 355.63C174.431 355.02 174.551 353.67 174.311 352.07C174.131 350.6 173.701 349.01 173.511 348.09C173.261 346.93 173.021 345.03 172.961 344.96C172.841 344.47 172.781 342.32 172.901 341.16C173.021 340.12 173.021 339.93 172.901 339.57C172.721 338.96 172.411 337.24 172.231 336.01C171.861 333.86 171.431 333.13 171.311 329.64C171.251 328.17 171.371 326.64 171.311 326.27C171.251 325.84 171.191 324.86 171.191 324.06C171.191 322.59 171.191 321.79 171.621 320.63C171.741 320.26 171.871 319.71 171.931 318.79C171.991 317.5 172.181 317.26 172.111 316.77C172.051 316.1 172.421 314.87 172.601 314.2C173.091 312.79 173.151 311.99 172.851 310.83C172.601 309.85 172.421 308.56 172.301 307.4C172.241 306.79 172.181 306.24 172.121 306.17C172.061 306.1 171.871 306.17 171.511 306.6C171.151 307.03 170.841 307.21 170.101 307.52C169.611 307.77 169.121 307.95 169.061 307.95C169.001 307.95 168.451 308.13 167.901 308.38C166.921 308.81 166.861 308.81 166.061 308.75C165.081 308.69 164.281 308.5 164.041 308.32C163.921 308.26 163.791 307.71 163.611 306.85C163.181 304.58 163.301 301.82 163.921 298.08C164.101 296.98 164.291 295.93 164.291 295.81C164.291 295.32 164.171 295.2 164.111 294.95C163.861 294.21 163.861 293.11 163.861 292.19C163.861 291.82 163.681 290.66 163.681 290.17C163.621 289.31 163.371 288.64 163.801 288.58C164.471 288.46 164.231 290.97 164.721 290.91C165.031 290.91 164.841 289.07 164.901 288.21C164.961 287.6 164.901 286.98 165.331 287.05C165.761 287.05 165.761 287.72 165.761 288.28C165.761 289.08 165.701 290.3 165.941 290.3C166.181 290.3 166.191 289.07 166.311 288.15C166.431 287.23 166.431 286.43 166.861 286.43C167.411 286.43 167.171 287.29 167.171 287.78C167.111 288.7 166.861 290.35 167.111 290.35C167.291 290.35 167.361 289.92 167.481 288.94C167.601 287.96 167.601 287.04 168.031 287.04C168.521 287.04 168.401 287.84 168.281 289.19C168.221 289.8 168.221 290.35 168.221 290.66C168.221 290.91 168.221 292.25 168.591 292.25C168.711 292.25 168.841 291.88 169.141 291.7C169.751 291.21 170.731 290.72 170.861 291.33C170.921 291.58 170.861 291.58 170.371 292.07C169.941 292.44 169.701 292.87 169.451 293.36C169.271 293.73 168.961 294.28 168.651 294.59C168.101 295.2 167.851 295.88 167.611 297.53C167.301 299.61 167.551 302.07 167.981 302.07C168.041 302.07 168.291 301.89 168.531 301.7C168.771 301.51 169.141 301.27 169.331 301.21C169.581 301.15 169.761 300.9 170.071 300.41C170.621 299.43 171.791 298.57 172.891 298.26C173.321 298.14 173.811 298.01 173.931 298.01C174.241 298.01 174.601 297.83 175.401 297.34C175.651 297.22 176.141 296.91 176.561 296.73C176.981 296.55 177.231 296.42 177.481 296.12C177.661 295.81 177.661 295.51 177.731 295.08C177.791 294.41 177.731 294.16 177.611 293.67C177.491 293.3 177.301 292.93 177.241 292.87C177.061 292.69 176.571 291.4 176.571 291.15C176.571 291.03 176.321 290.35 175.961 289.19C175.901 288.94 175.901 288.76 176.081 288.21C176.201 287.84 176.331 287.35 176.331 287.11C176.331 286.62 176.641 286.07 177.001 285.95C177.181 285.89 177.431 285.58 177.611 285.28C177.921 284.73 178.221 284.54 178.771 284.54C178.951 284.54 179.321 284.36 179.691 284.17C180.921 283.37 182.021 283.5 182.881 284.48C183.061 284.66 183.311 284.85 183.431 284.91C183.861 285.03 184.231 285.4 184.411 285.89C184.531 286.2 184.781 286.75 184.961 287.12C185.511 288.16 185.631 288.59 185.391 289.2C185.271 289.45 185.141 289.81 185.081 289.94C185.021 290.07 184.961 290.31 184.961 290.55C184.961 291.04 184.781 292.21 184.531 292.39C184.041 292.7 183.491 293.74 183.491 294.78C183.491 295.09 183.551 295.7 183.801 296.07C184.111 296.5 184.471 296.5 185.031 296.93C185.521 297.3 186.071 297.67 186.321 297.91C186.751 298.34 186.931 298.4 188.281 298.58C188.591 298.64 189.081 299.01 189.381 299.32C189.751 299.69 190.121 300.06 190.361 300.55C190.611 301.1 190.731 301.71 190.851 302.33C190.911 302.82 190.911 303.74 190.911 303.74C190.911 304.6 190.911 305.21 190.971 305.33C191.221 305.88 191.341 307.05 191.341 309.25C191.341 311.33 191.341 311.58 191.591 312.62C191.961 314.09 191.961 316.36 191.651 317.71C191.531 318.2 191.341 319 191.221 319.49C191.101 319.98 190.971 320.53 190.911 320.72C190.731 321.21 190.051 324.64 189.991 325.56C189.871 326.54 189.741 326.97 189.621 327.34C189.501 327.71 189.311 327.95 189.191 328.14C189.071 328.33 188.821 328.63 188.641 328.88C188.331 329.19 188.031 329.68 187.721 329.8C187.721 329.8 187.661 331.27 187.471 332.19C187.291 333.42 186.981 335.25 186.801 335.87C186.681 336.3 186.621 336.73 186.551 337.4C186.551 338.07 186.431 338.38 186.371 338.87C186.551 340.16 186.251 340.83 186.551 342.12C186.921 343.59 186.611 345.98 186.491 347.21C186.241 349.11 186.121 350.52 185.821 352.97C185.701 353.77 185.941 354.38 185.821 355.3C185.761 356.22 185.761 356.65 186.001 357.02C186.121 357.2 186.311 357.63 186.491 357.88C186.671 358.13 186.921 358.25 187.041 358.43C187.101 358.55 187.161 358.8 187.161 358.98C187.161 359.16 187.041 359.29 186.851 359.29" fill="#EDE9CD"/>
</g>
<defs>
<clipPath id="clip0_240_6320">
<rect width="674.33" height="360.25" fill="white"/>
</clipPath>
</defs>
</svg>
