<svg width="611" height="561" viewBox="0 0 611 561" fill="none" xmlns="http://www.w3.org/2000/svg">
<g clip-path="url(#clip0_240_2794)">
<path d="M535.989 520.6C542.789 520.95 548.799 524.49 555.319 526.03C561.699 527.54 568.549 527.3 574.559 530.18C578.379 532.01 570.639 533.01 569.639 533.26C567.679 533.74 565.919 534.4 565.469 536.57C564.219 542.63 570.939 550.55 577.099 550.55C579.929 550.55 582.759 550.55 585.579 550.55C582.339 549.9 584.649 544.99 586.149 543.9C588.459 542.23 591.829 541.93 594.469 540.94C597.419 539.84 600.039 538.25 602.199 535.94C606.469 531.37 609.309 525.5 610.069 519.28C610.539 515.47 610.539 510 608.209 506.76C605.849 503.49 600.909 503.03 597.229 502.46C588.129 501.05 578.899 500.74 569.699 500.76C565.079 500.77 560.499 501.79 555.899 502.05C552.169 502.26 548.249 502.48 544.659 501.27C528.819 495.99 549.379 490.69 554.719 489.76C555.539 489.62 556.469 489.4 556.859 488.66C557.639 487.18 555.519 485.9 553.879 485.54C544.679 483.56 543.299 479.1 536.879 472.54C522.959 458.32 502.579 452.67 482.919 449.57C455.499 445.25 427.489 444.85 399.939 448.24C386.169 449.94 372.509 452.59 359.109 456.17C349.749 458.67 330.409 461.21 325.289 470.15C325.959 468.98 315.989 462.04 314.829 461.21C308.329 456.56 300.619 454.5 292.929 452.79C286.669 451.4 280.609 449.18 274.319 447.93C270.549 447.19 262.959 444.76 260.789 449.39C259.489 452.16 258.579 455.27 258.719 458.36C258.819 460.65 259.899 462.21 260.959 464.14C262.749 467.4 262.969 471.35 265.079 474.46C267.579 478.14 271.609 480.37 274.439 483.75C277.259 487.11 279.619 490.9 282.809 493.94C284.429 495.49 286.259 496.82 288.289 497.78C290.079 498.63 293.099 498.81 294.049 500.84C294.699 502.25 285.959 505.69 284.879 506.39C280.249 509.38 277.579 514.59 272.799 517.43C271.519 518.19 267.879 519.75 269.709 521.52C271.029 522.79 273.479 522.03 274.969 521.53C272.249 522.43 269.549 527.53 270.179 530.25C270.889 533.36 273.949 531.2 275.239 529.56C274.229 532.51 273.909 535.55 273.519 538.63C273.229 540.92 273.059 542.9 275.499 540.87C276.939 539.67 278.519 537.82 279.319 536.1C278.469 537.91 276.819 549 281.379 547.61C284.269 546.73 284.299 542.76 285.119 540.42C285.199 541.86 285.199 546.02 286.999 546.58C289.139 547.24 290.419 543.16 291.169 541.81C294.119 536.44 298.949 532.6 303.569 528.74C305.899 526.79 308.229 524.8 310.249 522.52C311.889 520.67 313.289 518.29 315.959 517.92C319.509 517.43 322.379 520.37 325.429 521.65C329.179 523.23 333.309 523.11 337.279 523.57C344.419 524.39 342.869 532.26 345.629 536.93C346.879 539.04 348.789 540.59 350.459 542.35C350.849 542.77 353.929 547.29 353.689 547.3C351.119 547.44 349.219 547.32 347.649 549.63C345.609 552.66 343.849 558.22 348.399 559.59C352.799 560.92 357.279 559.51 361.689 559.06C366.489 558.58 375.799 558.48 376.469 552.03C376.939 547.56 374.729 543.25 373.099 539.23C371.949 536.38 369.859 532.8 369.779 529.71C369.809 530.99 387.389 531.83 389.209 531.82C397.729 531.73 405.919 529.17 414.139 527.22C425.059 524.64 436.329 524.94 447.469 524.62C452.379 524.48 457.429 524.09 462.379 523.81C465.659 523.62 466.549 523.27 469.129 525.16C467.259 526.52 463.899 525.22 461.769 525.15C459.359 525.07 456.549 525.38 454.949 527.42C452.929 530 452.209 535.38 453.249 538.51C454.119 541.14 456.089 544.21 459.079 544.58C463.099 545.08 463.299 539.43 466.739 539.67C468.809 539.81 470.249 542.54 471.789 543.59C473.929 545.04 476.879 545.01 479.369 545.23C484.559 545.68 490.499 545.23 495.019 542.41C496.589 541.43 497.609 539.98 498.909 538.7C501.109 536.54 503.229 534.25 504.699 531.52C505.659 529.73 505.799 526.2 507.959 525.5C509.689 524.93 511.839 524.96 513.649 524.75C516.769 524.38 519.819 524.23 522.859 523.39C525.959 522.54 528.949 521.31 532.129 520.77C533.409 520.55 534.679 520.5 535.959 520.56L535.989 520.6Z" fill="#EDE9CD"/>
<mask id="mask0_240_2794" style="mask-type:luminance" maskUnits="userSpaceOnUse" x="0" y="195" width="350" height="365">
<path d="M350 195H0V560H350V195Z" fill="white"/>
</mask>
<g mask="url(#mask0_240_2794)">
<path d="M225.03 273.57C226.33 269.25 227.62 246.37 226.76 238.59C226.33 234.7 225.9 226.5 226.33 219.59C226.33 208.36 226.33 207.07 224.6 202.75C222.87 197.57 220.71 191.52 219.85 191.52C218.99 191.52 216.4 204.04 216.4 207.07C216.4 208.37 216.4 210.52 216.83 212.25C218.13 217 218.99 233.41 218.56 236C218.13 237.73 218.13 239.02 219.42 242.91C220.28 246.36 221.15 251.55 221.58 260.18C222.44 274.43 222.01 280.91 223.31 280.48C223.31 280.05 224.61 275.3 225.04 273.57M189.63 532.66C186.18 532.66 185.31 528.77 185.31 528.34C185.31 527.48 185.74 523.16 186.61 519.7C187.47 516.25 188.34 513.65 188.77 510.2C188.77 506.75 187.91 506.75 188.34 502.86C189.2 495.09 190.5 483 187.91 472.2C187.05 468.75 184.46 453.2 183.59 450.18C181.86 444.13 180.57 435.5 180.14 430.32C179.71 425.14 180.14 409.16 181.44 403.12C181.87 400.53 181.44 397.94 181.01 395.35C180.58 392.76 179.71 390.17 179.28 387.15C177.55 374.63 177.12 360.81 175.83 348.72C174.53 337.92 174.1 330.58 171.94 318.49C169.78 305.97 168.49 306.4 167.62 315.9C167.19 319.35 167.62 325.4 167.62 330.15C167.62 337.49 166.76 342.67 166.76 352.17C166.76 370.31 164.6 378.51 163.31 384.12L162.88 390.6L163.31 397.08C165.9 410.47 165.9 414.35 165.9 422.99C165.9 429.9 164.6 436.38 163.74 443.29C162.88 449.34 162.44 455.81 161.15 461.43C160.29 467.04 159.85 478.7 160.29 486.04C160.72 492.52 161.15 496.84 162.02 504.18C162.45 509.36 162.88 513.25 163.32 516.7C165.48 530.95 161.16 531.38 150.8 531.81C145.62 532.24 145.62 530.08 139.14 530.08C132.66 530.08 123.59 532.24 120.57 532.24C116.68 532.24 109.77 532.24 103.3 531.81C99.8496 531.81 97.2496 528.79 99.8496 525.76C102.87 522.74 105.46 522.31 108.49 521.44C117.99 518.42 119.29 515.83 124.47 512.8C127.06 511.07 130.08 510.21 132.24 507.19C134.83 502.87 135.69 493.37 133.97 482.14C132.67 471.78 129.65 460.55 128.36 454.07C126.63 445.87 124.91 432.48 124.47 432.05C123.61 428.6 123.17 413.48 124.04 405.28C124.9 397.94 124.9 396.64 124.04 394.05C122.74 389.73 120.59 377.64 119.29 369C116.7 353.89 113.68 348.7 112.81 324.09C112.38 313.73 113.24 302.93 112.81 300.34C112.38 297.32 111.95 290.41 111.95 284.79C111.95 274.43 111.95 268.81 114.97 260.61C115.83 258.02 116.7 254.13 117.13 247.66C117.56 238.59 118.86 236.86 118.43 233.41C118 228.66 120.59 220.02 121.88 215.27C125.33 205.34 125.77 199.72 123.61 191.52C121.88 184.61 120.59 175.54 119.72 167.34C119.29 163.02 118.86 159.14 118.42 158.7C117.99 158.27 116.69 158.7 114.1 161.72C111.51 164.74 109.35 166.04 104.17 168.2C100.72 169.93 97.2596 171.22 96.8296 171.22C96.3996 171.22 92.5096 172.52 88.6296 174.24C81.7196 177.26 81.2896 177.26 75.6796 176.83C68.7696 176.4 63.1596 175.1 61.4296 173.81C60.5696 173.38 59.6996 169.49 58.4096 163.45C55.3896 147.47 56.2496 128.04 60.5696 101.7C61.8696 93.93 63.1596 86.59 63.1596 85.72C63.1596 82.2701 62.2996 81.4 61.8596 79.67C60.1296 74.49 60.1296 66.72 60.1296 60.24C60.1296 57.65 58.8296 49.44 58.8296 45.99C58.3996 39.94 56.6696 35.19 59.6896 34.76C64.4396 33.9 62.7096 51.6 66.1696 51.17C68.3296 51.17 67.0296 38.22 67.4696 32.17C67.8996 27.85 67.4696 23.53 70.4896 23.97C73.5096 23.97 73.5096 28.72 73.5096 32.61C73.5096 38.22 73.0796 46.86 74.8096 46.86C76.5396 46.86 76.5396 38.22 77.3996 31.75C78.2596 25.27 78.2596 19.66 81.2896 19.66C85.1796 19.66 83.4496 25.71 83.4496 29.16C83.0196 35.64 81.2896 47.3 83.0196 47.3C84.3196 47.3 84.7496 44.28 85.6096 37.37C86.4696 30.46 86.4696 23.98 89.4996 23.98C92.9496 23.98 92.0896 29.59 91.2296 39.09C90.7996 43.41 90.7996 47.29 90.7996 49.45C90.7996 51.18 90.7996 60.68 93.3896 60.68C94.2496 60.68 95.1196 58.09 97.2796 56.79C101.6 53.34 108.51 49.88 109.37 54.2C109.8 55.93 109.37 55.93 105.92 59.38C102.9 61.97 101.17 64.99 99.4396 68.45C98.1396 71.04 95.9896 74.93 93.8296 77.09C89.9396 81.41 88.2196 86.16 86.4896 97.82C84.3296 112.5 86.0596 129.77 89.0796 129.77C89.5096 129.77 91.2396 128.47 92.9696 127.18C94.6996 125.88 97.2896 124.16 98.5796 123.73C100.31 123.3 101.6 121.57 103.76 118.12C107.65 111.21 115.85 105.17 123.62 103.01C126.64 102.15 130.1 101.28 130.96 101.28C133.12 101.28 135.71 99.98 141.32 96.53C143.05 95.67 146.5 93.51 149.52 92.21C152.54 90.91 154.27 90.05 156 87.89C157.3 85.73 157.3 83.57 157.73 80.55C158.16 75.8 157.73 74.07 156.87 70.62C156.01 68.0301 154.71 65.44 154.28 65.01C152.98 63.71 149.53 54.65 149.53 52.92C149.53 52.06 147.8 47.31 145.21 39.1C144.78 37.37 144.78 36.08 146.07 32.19C146.93 29.6 147.8 26.14 147.8 24.42C147.8 20.97 149.96 17.08 152.55 16.22C153.85 15.79 155.57 13.63 156.87 11.47C159.03 7.58005 161.19 6.29005 165.07 6.29005C166.37 6.29005 168.96 4.99005 171.55 3.70005C180.19 -1.90995 187.96 -1.04995 194 5.86005C195.3 7.16005 197.02 8.45005 197.89 8.88005C200.91 9.74005 203.5 12.33 204.8 15.79C205.66 17.95 207.39 21.84 208.69 24.43C212.58 31.77 213.44 34.79 211.71 39.11C210.85 40.84 209.98 43.43 209.55 44.29C209.12 45.15 208.69 46.88 208.69 48.61C208.69 52.06 207.39 60.27 205.67 61.56C202.22 63.72 198.33 71.06 198.33 78.4C198.33 80.5601 198.76 84.8801 200.49 87.47C202.65 90.49 205.24 90.49 209.13 93.52C212.58 96.11 216.47 98.7 218.2 100.43C221.22 103.45 222.52 103.88 232.02 105.18C234.18 105.61 237.63 108.2 239.79 110.36C242.38 112.95 244.97 115.54 246.7 119C248.43 122.89 249.29 127.2 250.15 131.52C250.58 134.97 250.58 141.45 250.58 141.45C250.58 147.5 250.58 151.81 251.01 152.68C252.74 156.57 253.6 164.77 253.6 180.32C253.6 195 253.6 196.73 255.33 204.07C257.92 214.43 257.92 230.41 255.76 239.91C254.9 243.36 253.6 248.98 252.74 252.43C251.88 255.88 251.01 259.77 250.58 261.07C249.28 264.52 244.53 288.71 244.1 295.18C243.24 302.09 242.37 305.11 241.51 307.7C240.65 310.29 239.35 312.02 238.49 313.31C237.63 314.6 235.9 316.76 234.6 318.49C232.44 320.65 230.28 324.1 228.12 324.97C228.12 324.97 227.69 335.33 226.39 341.81C225.09 350.45 222.94 363.4 221.64 367.72C220.78 370.74 220.34 373.77 219.91 378.52C219.91 383.27 219.05 385.43 218.61 388.88C219.91 397.95 217.75 402.7 219.91 411.77C222.5 422.13 220.34 438.97 219.48 447.61C217.75 461 216.89 470.93 214.73 488.2C213.87 493.81 215.59 498.13 214.73 504.61C214.3 511.09 214.3 514.11 216.03 516.7C216.89 518 218.19 521.02 219.48 522.75C220.78 524.48 222.5 525.34 223.37 526.64C223.8 527.5 224.23 529.23 224.23 530.53C224.23 531.83 223.37 532.69 222.07 532.69" fill="#EDE9CD"/>
</g>
</g>
<defs>
<clipPath id="clip0_240_2794">
<rect width="610.32" height="560.18" fill="white"/>
</clipPath>
</defs>
</svg>
