<svg width="579" height="372" viewBox="0 0 579 372" fill="none" xmlns="http://www.w3.org/2000/svg">
<g clip-path="url(#clip0_234_2229)">
<path d="M117.42 190.67C118.32 187.66 119.23 171.71 118.62 166.29C118.32 163.58 118.02 157.86 118.32 153.05C118.32 145.23 118.32 144.32 117.12 141.31C115.92 137.7 114.41 133.49 113.81 133.49C113.21 133.49 111.4 142.22 111.4 144.32C111.4 145.22 111.4 146.73 111.7 147.93C112.6 151.24 113.2 162.68 112.9 164.48C112.6 165.68 112.6 166.59 113.5 169.3C114.1 171.71 114.7 175.32 115 181.34C115.6 191.27 115.3 195.79 116.2 195.49C116.2 195.19 117.1 191.88 117.4 190.67M92.7205 371.25C90.3105 371.25 89.7105 368.54 89.7105 368.24C89.7105 367.64 90.0105 364.63 90.6105 362.22C91.2105 359.81 91.8105 358.01 92.1105 355.6C92.1105 353.19 91.5105 353.19 91.8105 350.48C92.4105 345.06 93.3105 336.64 91.5105 329.11C90.9105 326.7 89.1005 315.87 88.5005 313.76C87.3005 309.55 86.3905 303.53 86.0905 299.92C85.7905 296.31 86.0905 285.17 86.9905 280.96C87.2905 279.15 86.9905 277.35 86.6905 275.54C86.3905 273.73 85.7905 271.93 85.4905 269.82C84.2905 261.09 83.9905 251.46 83.0805 243.03C82.1805 235.51 81.8805 230.39 80.3705 221.96C78.8705 213.23 77.9605 213.53 77.3605 220.15C77.0605 222.56 77.3605 226.77 77.3605 230.08C77.3605 235.2 76.7605 238.81 76.7605 245.43C76.7605 258.07 75.2605 263.79 74.3505 267.7L74.0505 272.21L74.3505 276.72C76.1605 286.05 76.1605 288.76 76.1605 294.78C76.1605 299.6 75.2605 304.11 74.6605 308.93C74.0605 313.14 73.7605 317.66 72.8505 321.57C72.2505 325.48 71.9505 333.61 72.2505 338.72C72.5505 343.23 72.8505 346.24 73.4505 351.36C73.7505 354.97 74.0505 357.68 74.3505 360.09C75.8505 370.02 72.8505 370.32 65.6205 370.62C62.0105 370.92 62.0105 369.42 57.4905 369.42C52.9705 369.42 46.6605 370.92 44.5505 370.92C41.8405 370.92 37.0305 370.92 32.5105 370.62C30.1005 370.62 28.3005 368.51 30.1005 366.41C32.2105 364.3 34.0105 364 36.1205 363.4C42.7405 361.29 43.6405 359.49 47.2605 357.38C49.0705 356.18 51.1705 355.57 52.6805 353.47C54.4905 350.46 55.0905 343.84 53.8805 336.01C52.9805 328.79 50.8705 320.96 49.9705 316.45C48.7705 310.73 47.5605 301.4 47.2605 301.1C46.6605 298.69 46.3605 288.16 46.9605 282.44C47.5605 277.32 47.5605 276.42 46.9605 274.62C46.0605 271.61 44.5505 263.18 43.6505 257.16C41.8405 246.63 39.7405 243.01 39.1405 225.86C38.8405 218.64 39.4405 211.11 39.1405 209.31C38.8405 207.2 38.5405 202.39 38.5405 198.48C38.5405 191.26 38.5405 187.34 40.6505 181.63C41.2505 179.82 41.8505 177.12 42.1505 172.6C42.4505 166.28 43.3505 165.08 43.0505 162.67C42.7505 159.36 44.5505 153.34 45.4605 150.03C47.8705 143.11 48.1705 139.2 46.6605 133.48C45.4605 128.66 44.5505 122.34 43.9505 116.63C43.6505 113.62 43.3505 110.91 43.0505 110.61C42.7505 110.31 41.8505 110.61 40.0405 112.72C38.2305 114.83 36.7305 115.73 33.1205 117.23C30.7105 118.43 28.3005 119.34 28.0005 119.34C27.7005 119.34 24.9905 120.24 22.2805 121.45C17.4605 123.56 17.1605 123.56 13.2505 123.26C8.43046 122.96 4.52046 122.06 3.32046 121.15C2.72046 120.85 2.12046 118.14 1.21046 113.93C-0.899539 102.79 -0.289539 89.25 2.71046 70.89C3.61046 65.47 4.52046 60.36 4.52046 59.75C4.52046 57.34 3.92046 56.74 3.62046 55.54C2.42046 51.93 2.42046 46.51 2.42046 42C2.42046 40.19 1.52046 34.48 1.52046 32.07C1.22046 27.86 0.0204611 24.55 2.12046 24.25C5.43046 23.65 4.23046 35.99 6.63046 35.69C8.13046 35.69 7.23046 26.66 7.53046 22.45C7.83046 19.44 7.53046 16.43 9.64046 16.73C11.7505 16.73 11.7505 20.04 11.7505 22.75C11.7505 26.66 11.4505 32.68 12.6505 32.68C13.8505 32.68 13.8505 26.66 14.4605 22.15C15.0605 17.64 15.0605 13.72 17.1705 13.72C19.8805 13.72 18.6705 17.93 18.6705 20.34C18.3705 24.85 17.1705 32.98 18.3705 32.98C19.2705 32.98 19.5705 30.87 20.1805 26.06C20.7805 21.24 20.7805 16.73 22.8905 16.73C25.3005 16.73 24.7005 20.64 24.0905 27.26C23.7905 30.27 23.7905 32.98 23.7905 34.48C23.7905 35.68 23.7905 42.3 25.6005 42.3C26.2005 42.3 26.8005 40.49 28.3105 39.59C31.3205 37.18 36.1405 34.77 36.7405 37.78C37.0405 38.98 36.7405 38.98 34.3305 41.39C32.2205 43.2 31.0205 45.3 29.8205 47.71C28.9205 49.52 27.4105 52.22 25.9105 53.73C23.2005 56.74 22.0005 60.05 20.7905 68.18C19.2905 78.41 20.4905 90.45 22.6005 90.45C22.9005 90.45 24.1005 89.55 25.3105 88.64C26.5105 87.74 28.3205 86.53 29.2205 86.23C30.4205 85.93 31.3305 84.73 32.8305 82.32C35.5405 77.5 41.2605 73.29 46.6705 71.79C48.7805 71.19 51.1805 70.59 51.7905 70.59C53.2905 70.59 55.1005 69.69 59.0105 67.28C60.2105 66.68 62.6205 65.17 64.7305 64.27C66.8405 63.37 68.0405 62.77 69.2405 61.26C70.1405 59.76 70.1405 58.25 70.4405 56.14C70.7405 52.83 70.4405 51.63 69.8405 49.22C69.2405 47.41 68.3405 45.61 68.0305 45.31C67.1305 44.41 64.7205 38.09 64.7205 36.88C64.7205 36.28 63.5205 32.97 61.7105 27.25C61.4105 26.05 61.4105 25.14 62.3105 22.43C62.9105 20.62 63.5105 18.22 63.5105 17.01C63.5105 14.6 65.0105 11.89 66.8205 11.29C67.7205 10.99 68.9305 9.48002 69.8305 7.98002C71.3305 5.27002 72.8405 4.37002 75.5505 4.37002C76.4505 4.37002 78.2605 3.47002 80.0605 2.56002C86.0805 -1.34998 91.5005 -0.749977 95.7105 4.06002C96.6105 4.96002 97.8205 5.87002 98.4205 6.17002C100.53 6.77002 102.33 8.58002 103.24 10.99C103.84 12.49 105.05 15.2 105.95 17.01C108.66 22.13 109.26 24.23 108.06 27.24C107.46 28.44 106.86 30.25 106.56 30.85C106.26 31.45 105.96 32.66 105.96 33.86C105.96 36.27 105.06 41.99 103.85 42.89C101.44 44.39 98.7305 49.51 98.7305 54.63C98.7305 56.13 99.0305 59.14 100.23 60.95C101.73 63.06 103.54 63.06 106.25 65.16C108.66 66.97 111.37 68.77 112.57 69.98C114.68 72.09 115.58 72.39 122.2 73.29C123.7 73.59 126.11 75.4 127.62 76.9C129.43 78.71 131.23 80.51 132.44 82.92C133.64 85.63 134.25 88.64 134.85 91.65C135.15 94.06 135.15 98.57 135.15 98.57C135.15 102.78 135.15 105.79 135.45 106.39C136.65 109.1 137.26 114.82 137.26 125.65C137.26 135.88 137.26 137.09 138.46 142.2C140.27 149.42 140.27 160.56 138.76 167.18C138.16 169.59 137.26 173.5 136.65 175.91C136.05 178.32 135.45 181.03 135.15 181.93C134.25 184.34 130.94 201.19 130.64 205.71C130.04 210.53 129.44 212.63 128.83 214.44C128.23 216.25 127.33 217.45 126.72 218.35C126.12 219.25 124.91 220.76 124.01 221.96C122.51 223.46 121 225.87 119.5 226.47C119.5 226.47 119.2 233.69 118.3 238.21C117.4 244.23 115.89 253.26 114.99 256.27C114.39 258.38 114.09 260.48 113.79 263.79C113.79 267.1 113.19 268.61 112.89 271.01C113.79 277.33 112.29 280.64 113.79 286.96C115.6 294.18 114.09 305.92 113.49 311.94C112.29 321.27 111.68 328.19 110.18 340.23C109.58 344.14 110.78 347.15 110.18 351.67C109.88 356.18 109.88 358.29 111.08 360.1C111.68 361 112.58 363.11 113.49 364.31C114.39 365.51 115.6 366.12 116.2 367.02C116.5 367.62 116.8 368.83 116.8 369.73C116.8 370.63 116.2 371.23 115.3 371.23" fill="#EDE9CD"/>
<path d="M522.52 232.17C523.75 234.78 524.82 237.54 525.85 240.22C527.86 245.45 529.95 250.86 533.41 255.39C538.47 262.01 546.44 266.38 554.74 267.09C555.65 267.17 557.5 267.25 559.52 266.9C562.14 266.45 565.05 265.27 566.62 262.43C567.48 260.86 567.73 259.09 567.96 257.37C568.13 256.13 568.31 254.84 568.72 253.68C569.52 251.43 571.14 249.67 572.85 247.81C573.99 246.57 575.16 245.3 576.07 243.86C578.45 240.13 578.97 235.24 577.43 231.1C576.98 229.88 576.35 228.69 575.74 227.54C574.52 225.22 573.36 223.04 573.53 220.61C573.57 220 573.7 219.39 573.84 218.75C574.06 217.72 574.28 216.65 574.13 215.56C573.66 212.34 570.33 210.63 567.48 209.51C566.18 209 564.87 208.49 563.56 207.99C558.87 206.19 554.02 204.32 549.53 201.93C543.01 198.46 538.14 194.27 535.04 189.49C532.31 185.26 532.38 179.35 529.79 174.82C526.74 169.48 521.66 165.46 516.02 163.01C510.37 160.57 504.17 159.61 498.02 159.47C489.25 159.27 479.48 161.26 474.37 168.39C472.24 171.36 471.13 174.98 470.66 178.61C470.25 181.76 470.31 185.06 471.51 188C473.2 192.16 476.92 195.14 480.75 197.48C484.67 199.87 488.68 202.69 492.95 204.24C497.22 205.79 501.3 208.2 505.02 210.99C512.42 216.54 518.53 223.83 522.49 232.19L522.52 232.17Z" fill="#EDE9CD"/>
<path d="M313.91 168.04C313.67 169.05 313.44 170.07 313.24 171.11C310.64 184.61 311.88 198.53 313.43 210.36L313.56 211.34C314.54 218.71 315.54 226.34 312.96 233.33C312.27 235.21 311.32 236.99 310.4 238.72C309.51 240.39 308.59 242.13 307.93 243.91C306.08 248.84 306.05 254.28 306.18 259.44C306.28 263.56 306.48 267.77 306.67 271.84C307.28 284.83 307.92 298.27 305.47 311.24C305.14 312.99 304.58 314.89 302.96 315.71C302.65 315.86 302.35 315.97 302.04 316.02C299.8 316.41 297.54 314.3 296.18 312.16C289.78 302.1 286.5 290.4 283.33 279.08C280.63 269.44 277.83 259.47 273.13 250.56C272.67 249.7 272.19 248.82 271.72 247.98C270.37 245.54 268.97 243.02 268.03 240.33C266.6 236.25 266.24 231.87 265.9 227.64C265.83 226.79 265.76 225.94 265.69 225.1C265.04 218 263.76 210.74 262.52 203.71C259.65 187.47 256.68 170.67 261.37 154.76C262.59 150.63 264.13 147.35 266.09 144.75C270.01 139.55 275.93 136.48 281.71 134.23C288.13 131.73 293.93 131.87 300.79 132.49C303.62 132.75 306.65 133.08 308.84 134.9C311.9 137.45 312.26 141.93 312.39 145.91C312.63 153.27 315.64 160.88 313.92 168.04H313.91Z" fill="#EDE9CD"/>
<path d="M492.27 203.68C490.61 204.04 488.92 204.37 487.2 204.67C476.92 206.46 465.48 207.14 451.87 206.81C434.85 206.4 418.23 204.56 402.46 201.33C387.11 198.19 371.88 193.59 357.14 189.15C347.47 186.23 337.77 183.2 328.79 178.51C319.79 173.8 311.62 166.79 303.91 160.24C301.23 157.96 298.96 155.23 296.71 152.52C289.17 143.43 282.17 133.68 272.92 126.24C263.23 118.45 264.2 102.41 266.32 90.1701C267.36 84.1601 270.06 79.3801 274.72 75.4401C276.43 73.9901 278.21 72.6201 280.08 71.4001C284.17 68.7501 288.97 66.6401 295.19 64.7601C324.11 56.0401 364.27 52.3701 432.94 80.4901C446.96 86.2301 460.95 93.4101 475.95 101.83C508.23 119.96 538.32 141.12 567.42 161.59C567.96 161.97 569.09 162.76 569.08 163.94C569.08 164.73 568.58 165.36 568.11 165.88C559.47 175.58 547.97 181.47 534.93 187.63C519.07 195.13 503.25 200.17 486.35 204.89" fill="#EDE9CD"/>
<path d="M251.84 115.22C255.88 116.19 259.74 117.8 263.38 119.79C268.47 122.58 272.6 126.78 278.22 128.68C283.95 130.61 290.25 130.39 296.17 129.66C303.16 128.79 310.38 127.15 315.79 122.65C323.53 116.21 325.96 104.95 323.97 95.0899C323.54 92.9799 322.93 90.8699 321.79 89.0399C320.56 87.0599 318.79 85.4999 317.04 83.9599C312.98 80.3899 308.8 76.7499 303.77 74.7799C294.72 71.2399 286.51 74.2799 277.45 75.4199C273.26 75.9499 268.33 73.5399 264.23 72.3199C259.67 70.9599 255.12 69.5499 250.65 67.9199C249.67 67.5599 248.69 67.1999 247.7 66.8499C238.56 63.5399 227.53 66.6899 220.08 72.9399C217.65 74.9799 215.58 77.5299 214.53 80.5299C213.79 82.6499 213.58 84.9199 213.63 87.1699C213.9 98.2799 221.86 109.35 232.08 113.74C238.64 113.71 245.42 113.68 251.84 115.23V115.22Z" fill="#EDE9CD"/>
<path d="M205.84 110.07C216.96 115.09 233.69 115.24 244.71 109.71C247.54 108.29 250.45 106.81 252.51 104.4C253.63 103.09 254.45 101.56 255.19 100.01C258.09 93.97 259.95 87.16 258.73 80.58C256.85 70.37 248.63 66.99 239.79 64.09C229.38 60.68 218.42 58.09 207.4 59.23C202.54 59.73 199.09 60.95 196.55 63.05C195.21 64.16 194.13 65.53 193.08 66.85C192.19 67.97 191.27 69.13 190.22 70.1C189.82 70.47 189.38 70.83 188.95 71.18C187.84 72.08 186.7 73.01 185.97 74.3C184.97 76.07 184.93 78.13 184.99 80.27C185.08 83.66 185.26 87.1 185.53 90.48C185.63 91.71 185.76 92.81 186.39 93.76C187.56 95.52 189.9 95.87 191.61 96.13C192 96.19 192.38 96.26 192.77 96.32C194.62 102.01 199.42 107.15 205.85 110.06L205.84 110.07Z" fill="#EDE9CD"/>
</g>
<defs>
<clipPath id="clip0_234_2229">
<rect width="578.32" height="371.25" fill="white"/>
</clipPath>
</defs>
</svg>
