<svg width="105" height="40" viewBox="0 0 105 40" fill="none" xmlns="http://www.w3.org/2000/svg">
<path d="M104.275 36.5995C104.764 37.8909 104.113 39.3339 102.822 39.8226C101.53 40.3113 100.087 39.6607 99.5986 38.3693L104.275 36.5995ZM6.41664 29.1289C5.04587 29.2943 3.80053 28.3172 3.63507 26.9465L0.938846 4.60858C0.773393 3.23782 1.75049 1.99247 3.12125 1.82702C4.49201 1.66156 5.73736 2.63866 5.90282 4.00942L8.29946 23.8653L28.1553 21.4687C29.5261 21.3032 30.7715 22.2803 30.9369 23.6511C31.1024 25.0218 30.1253 26.2672 28.7545 26.4326L6.41664 29.1289ZM99.5986 38.3693C91.2124 16.2105 74.1313 6.49878 56.2957 5.81665C38.3031 5.12852 19.4977 13.6428 8.08392 28.1901L4.1502 25.1037C16.5615 9.28496 36.9059 0.0714305 56.4868 0.820304C76.2247 1.57518 95.1411 12.4652 104.275 36.5995L99.5986 38.3693Z" fill="#EDE9CD"/>
</svg>
