<svg width="125" height="126" viewBox="0 0 125 126" fill="none" xmlns="http://www.w3.org/2000/svg">
<circle cx="62.2797" cy="62.8609" r="61.2789" transform="rotate(90 62.2797 62.8609)" stroke="#B9BB8B" stroke-width="2"/>
<circle cx="62.2784" cy="62.8622" r="43.5106" transform="rotate(90 62.2784 62.8622)" fill="#B9BB8B"/>
<path d="M45.6438 49.5397C45.6129 48.1066 46.8212 47.0863 48.1035 47.0777C49.4237 47.0691 50.5696 48.2062 50.5539 49.5189C50.5374 50.8725 49.5034 51.9788 48.0719 51.986C46.7717 51.9924 45.6 50.8546 45.6438 49.5397ZM48.0884 48.7358C47.617 48.6963 47.2962 49.1349 47.2769 49.5325C47.2568 49.936 47.7031 50.3652 48.092 50.3501C48.5347 50.3329 48.9007 49.9431 48.9007 49.4881C48.9007 49.1119 48.496 48.7365 48.0884 48.735L48.0884 48.7358Z" fill="#384C2C"/>
<path d="M76.1674 85.2363C76.8735 84.4524 77.642 83.7301 78.3703 82.9684C79.857 81.4135 81.3624 79.8751 82.8613 78.3317C83.4597 77.7162 84.0696 77.1121 84.658 76.4866C84.9752 76.1491 84.9594 75.5974 84.6308 75.285C83.4074 74.122 50.2386 41.9616 49.5792 41.3296C49.2534 41.0172 48.6593 41.0423 48.3938 41.3368C47.6877 42.12 46.9193 42.843 46.191 43.6046C44.7035 45.1595 43.1996 46.6979 41.6999 48.2414C41.0972 48.8619 40.4794 49.4688 39.8896 50.1022C39.5825 50.4318 39.5997 50.9735 39.9269 51.2874C41.1201 52.431 42.299 53.5896 43.4945 54.7311C44.8119 55.9886 46.1092 57.2669 47.4172 58.5344C49.0417 60.1101 50.6662 61.6865 52.2965 63.2564L62.4769 73.116C63.0782 73.7086 63.6873 74.2933 64.2929 74.8816C65.3922 75.9492 66.4879 77.0204 67.5893 78.0859C69.4341 79.8701 71.2824 81.6514 73.1287 83.4342C73.7508 84.0346 74.3564 84.6508 74.9813 85.2484C75.3057 85.5587 75.8998 85.5336 76.1667 85.237L76.1674 85.2363ZM75.3824 83.341C74.2825 82.2633 73.181 81.1871 72.0732 80.1173C70.6216 78.7158 69.1722 77.3113 67.7249 75.9048C66.3386 74.5577 64.9452 73.217 63.5582 71.8699C62.1403 70.4935 60.7189 69.122 59.3018 67.7448C57.9205 66.402 56.5321 65.0657 55.1494 63.7236C53.7165 62.3328 52.28 60.9463 50.847 59.5555C49.45 58.1991 48.0472 56.8477 46.6509 55.4906C45.2488 54.1277 43.8303 52.7828 42.4404 51.4085C42.2208 51.1914 41.9919 50.9814 41.7595 50.7779C41.6518 50.684 41.6647 50.6174 41.7566 50.5235C42.6836 49.5813 43.61 48.6383 44.5327 47.6911C45.975 46.21 47.4151 44.726 48.8523 43.2392C48.9707 43.1167 49.046 43.1031 49.1759 43.2306C50.2888 44.3248 51.406 45.4153 52.5282 46.5009C53.433 47.3765 54.3429 48.2471 55.2585 49.1112C55.4048 49.2495 55.4084 49.3291 55.2663 49.471C54.749 49.9876 54.2439 50.5164 53.7366 51.0423C53.5098 51.2781 53.4381 51.66 53.5694 51.9409C53.7179 52.2576 53.9647 52.4252 54.3472 52.408C54.612 52.4424 54.8229 52.2998 55.0102 52.1049C55.4938 51.6041 55.9803 51.1054 56.4589 50.5995C56.5723 50.4798 56.6376 50.4806 56.7624 50.5959C57.2546 51.0488 57.7246 51.5238 58.2047 51.9882C58.313 52.0928 58.3259 52.1637 58.2125 52.2791C57.3343 53.1704 56.4646 54.0704 55.5871 54.9618C55.3324 55.2205 55.2226 55.5128 55.3295 55.8625C55.4321 56.1985 55.6782 56.3841 56.0212 56.4328C56.3261 56.4758 56.5637 56.3368 56.7696 56.1247C57.5876 55.2828 58.4056 54.4409 59.225 53.6004C59.5479 53.2686 59.5472 53.2722 59.8758 53.5961C60.2963 54.0102 60.7146 54.4272 61.1466 54.8292C61.3109 54.9819 61.1903 55.0621 61.1028 55.1517C60.6249 55.6375 60.1406 56.1176 59.6627 56.6034C59.319 56.9538 59.2515 57.3421 59.4632 57.6925C59.7481 58.1647 60.3465 58.2478 60.7419 57.8566C61.2571 57.3464 61.7658 56.8305 62.2666 56.306C62.4116 56.1541 62.5027 56.1462 62.6562 56.3003C63.109 56.7524 63.5761 57.1895 64.044 57.6259C64.1588 57.7334 64.1781 57.8079 64.0576 57.9297C63.4254 58.571 62.7998 59.2187 62.1741 59.8665C61.9057 60.1445 61.6424 60.4275 61.3776 60.7091C61.0597 61.0473 61.0526 61.5367 61.3604 61.8492C61.6904 62.1838 62.1985 62.2017 62.5357 61.8678C62.9648 61.4422 63.3759 60.9986 63.7971 60.5651C64.2822 60.0664 64.7715 59.572 65.253 59.0697C65.347 58.9715 65.4073 58.9594 65.5084 59.059C66.0043 59.5476 66.5051 60.0327 67.0074 60.515C67.1265 60.6289 67.0454 60.6941 66.9693 60.7729C66.4606 61.2974 65.9512 61.8212 65.446 62.3493C65.0212 62.7928 65.1418 63.4341 65.6943 63.6985C65.9799 63.8354 66.3645 63.7666 66.6077 63.518C67.1193 62.9949 67.6288 62.4697 68.1275 61.9351C68.2667 61.7861 68.347 61.7897 68.4877 61.9337C68.9383 62.3973 69.3925 62.8588 69.8833 63.2815C70.0174 63.3969 70.0354 63.4721 69.8969 63.6118C69.0165 64.5025 68.1468 65.4032 67.2743 66.301C66.9184 66.6672 66.8897 67.1336 67.1817 67.4761C67.4967 67.8452 68.0808 67.8552 68.4561 67.4582C69.2475 66.6206 70.0591 65.8016 70.8641 64.9768C71.2222 64.61 71.2193 64.6179 71.5917 64.9597C72.0165 65.3487 72.4233 65.7564 72.8374 66.1563C72.9471 66.2623 72.9428 66.3218 72.8402 66.4264C72.3329 66.943 71.8357 67.4697 71.3277 67.9863C71.0858 68.2321 70.9689 68.5115 71.078 68.8462C71.1877 69.1829 71.4468 69.3814 71.7854 69.4366C72.0854 69.4853 72.3279 69.3241 72.5302 69.1163C73.0203 68.6133 73.5125 68.1124 73.9919 67.5987C74.1296 67.4511 74.2078 67.4661 74.3399 67.6001C74.7991 68.0658 75.2676 68.5237 75.7405 68.9766C75.8668 69.0969 75.8668 69.1672 75.7405 69.2954C74.85 70.1947 73.9682 71.1025 73.0849 72.009C72.8309 72.2698 72.7634 72.6409 72.9084 72.9397C73.0763 73.2851 73.3855 73.4607 73.7644 73.4256C73.9804 73.4055 74.1454 73.2894 74.2904 73.1404C75.1801 72.2297 76.0706 71.3196 76.9553 70.4046C77.0471 70.31 77.1002 70.2842 77.205 70.3867C77.6872 70.8589 78.1715 71.329 78.6652 71.7897C78.8087 71.9237 78.78 72.0125 78.6587 72.1344C78.1514 72.6424 77.6463 73.1518 77.1483 73.6692C76.7558 74.0762 76.8268 74.6795 77.2897 74.9783C77.5731 75.161 78.0187 75.118 78.2648 74.8722C78.7922 74.3463 79.3181 73.8189 79.8362 73.2837C79.961 73.1547 80.0407 73.1432 80.1777 73.2701C80.8242 73.8655 81.4298 74.5025 82.0641 75.1094C82.3031 75.338 82.5406 75.568 82.7881 75.7858C82.9001 75.884 82.9001 75.9514 82.7989 76.0545C81.6853 77.1888 80.5724 78.3238 79.4638 79.4624C78.851 80.0915 78.249 80.7314 77.6369 81.3612C76.9904 82.0269 76.3361 82.6854 75.691 83.3525C75.569 83.4786 75.4944 83.4499 75.3824 83.3403L75.3824 83.341Z" fill="#384C2C"/>
</svg>
