<svg width="27" height="25" viewBox="0 0 27 25" fill="none" xmlns="http://www.w3.org/2000/svg">
<path d="M11.5452 17.8892C11.0187 17.699 8.98608 16.8182 9.18717 16.5787C9.38827 16.3393 9.77344 16.4035 10.05 16.3931C11.785 16.3271 13.4932 16.6114 15.2071 16.8182C17.2087 17.0592 19.2015 17.1653 21.0924 16.2633C21.8673 15.893 22.6007 15.4614 23.1204 14.7347C23.4576 14.2639 23.5682 13.6296 24.1838 13.3518C24.5645 13.1801 24.8843 12.8776 25.2616 12.6983C25.572 12.5513 25.8959 12.3749 26.2763 12.4631C26.3983 12.4913 26.5017 12.6942 26.6338 12.5503C26.7519 12.4213 26.6369 12.2644 26.5945 12.1268C26.5336 11.9298 26.4236 11.754 26.2818 11.605C25.5363 10.8235 24.6299 10.4751 23.553 10.6334C23.3361 10.6655 23.2169 10.6356 23.0827 10.4437C22.5863 9.73403 22.0104 9.10285 21.1489 8.82325C19.6013 8.32116 18.1398 8.7523 16.7595 9.37898C15.7993 9.81499 14.8219 10.0879 13.7983 10.2271C12.8128 10.3615 11.817 10.3039 10.8254 10.2932C10.1328 10.2854 9.43611 10.3521 8.75389 10.1757C8.55922 10.1258 8.33411 10.1012 8.28441 9.84634C8.23422 9.58732 8.41509 9.43956 8.58652 9.31038C8.93329 9.04816 9.2888 8.79685 9.6502 8.55567C10.4866 7.99917 11.3163 7.43796 12.2755 7.09095C12.938 6.85119 13.6256 6.78829 14.3055 6.66507C16.0003 6.35736 17.1867 5.17695 17.3277 3.3992C17.3431 3.20653 17.3803 3.01709 17.5326 2.87952C18.1034 2.36163 18.3371 1.58467 18.9236 1.078C19.0753 0.946634 18.997 0.843994 18.8406 0.840012C18.3125 0.826701 17.7824 0.628128 17.2593 0.796477C16.659 0.989231 16.0975 1.05051 15.4504 0.894484C14.5134 0.668789 13.5507 0.957573 12.6314 1.14699C11.2794 1.42531 10.0681 2.05267 9.16467 3.15007C8.84169 3.54308 8.42796 3.7876 7.93902 3.80193C7.28976 3.82132 6.69729 4.03818 6.13617 4.29299C5.298 4.67277 4.62407 5.24933 4.41012 6.2264C4.31526 6.66106 4.08319 7.05019 3.68486 7.2759C2.62523 7.87695 1.91424 8.79612 1.3519 9.83541C0.664371 11.1058 0.423642 12.4781 0.657212 13.9019C0.750532 14.4722 0.938163 15.0331 1.24312 15.5471C1.8315 16.5383 2.71947 17.1518 3.73407 17.6361C4.85891 18.1731 5.71555 18.9965 6.29019 20.117C6.44728 20.4237 6.61067 20.7576 6.90116 20.9716C7.58808 21.4787 8.36444 21.8008 9.22174 21.7194C10.1125 21.6349 10.8123 21.9837 11.3816 22.5714C12.3665 23.5896 13.4996 24.2625 14.928 24.3998C16.0229 24.5051 17.1054 24.5644 18.06 23.8583C18.1079 23.8228 18.1896 23.8065 18.2496 23.8161C18.8292 23.9107 19.4229 23.795 19.998 23.9281C20.3038 23.9994 20.3674 23.8935 20.2757 23.6127C20.0653 22.9663 19.7472 22.386 19.2236 21.9434C18.9534 21.715 18.7836 21.4538 18.6855 21.1089C18.5383 20.5898 18.4139 20.0564 18.0047 19.6453C17.2953 18.9321 16.3905 18.6468 15.4488 18.47C14.1557 18.2273 12.809 18.3455 11.5452 17.8892Z" fill="#B9BB8B"/>
</svg>
