<svg width="27" height="25" viewBox="0 0 27 25" fill="none" xmlns="http://www.w3.org/2000/svg">
<path d="M11.3754 18.3595L11.3752 18.3595C11.0917 18.257 10.4341 17.9813 9.87004 17.6998C9.59063 17.5604 9.31199 17.4086 9.11021 17.2675C9.01551 17.2013 8.90089 17.1125 8.81657 17.0056C8.7752 16.9532 8.7107 16.8589 8.68463 16.7298C8.65346 16.5755 8.68468 16.3996 8.80429 16.2572C9.02954 15.989 9.33592 15.9224 9.54189 15.9024C9.6482 15.892 9.75108 15.892 9.83207 15.8929C9.85464 15.8931 9.87502 15.8934 9.89371 15.8936C9.95019 15.8944 9.99131 15.895 10.0313 15.8935C11.4976 15.8377 12.9504 16.0252 14.3545 16.2065C14.6611 16.2461 14.9653 16.2854 15.2669 16.3218L11.3754 18.3595ZM11.3754 18.3595C12.0708 18.6106 12.7769 18.6992 13.4422 18.7578C13.6028 18.7719 13.7597 18.7843 13.9137 18.7964C14.4153 18.836 14.8864 18.8732 15.3566 18.9614C16.2672 19.1324 17.0491 19.3936 17.6503 19.9979L17.6503 19.998C17.9322 20.2812 18.0339 20.6412 18.1785 21.1533C18.187 21.1835 18.1956 21.2141 18.2045 21.2453L18.2046 21.2456C18.3299 21.6865 18.5549 22.0329 18.9008 22.3253L18.9008 22.3253C19.2314 22.6047 19.4712 22.9573 19.6517 23.3728C19.465 23.3582 19.2866 23.3574 19.1247 23.3577C19.1024 23.3577 19.0803 23.3578 19.0586 23.3578C18.7809 23.3585 18.5529 23.359 18.3301 23.3227L18.329 23.3225C18.2268 23.306 18.1278 23.3136 18.0448 23.3315C17.9637 23.349 17.8595 23.3847 17.7627 23.4563C16.9786 24.0363 16.0814 24.0084 14.9759 23.9021C13.6938 23.7788 12.6651 23.1791 11.741 22.2238L11.7407 22.2235C11.0895 21.5513 10.2475 21.1199 9.1745 21.2217C8.48022 21.2876 7.82443 21.0317 7.19812 20.5694L7.19777 20.5691C7.0206 20.4386 6.90729 20.225 6.73521 19.889L6.73509 19.8888C6.10984 18.6697 5.17198 17.7685 3.94947 17.1849C2.97859 16.7214 2.19019 16.1629 1.67313 15.292C1.40391 14.8382 1.2352 14.3379 1.15065 13.8212L1.15062 13.821C0.935389 12.5089 1.15562 11.2486 1.79163 10.0734L1.79165 10.0734M11.3754 18.3595L1.79165 10.0734M22.7137 14.4439L22.7139 14.4436C22.7764 14.3563 22.8331 14.2548 22.8984 14.129C22.912 14.1026 22.9265 14.0743 22.9416 14.0448C22.9931 13.9439 23.0525 13.8277 23.1156 13.7194C23.2877 13.4236 23.536 13.0956 23.9782 12.8961L23.9782 12.896C24.1222 12.8311 24.2624 12.7378 24.4417 12.6152C24.4498 12.6096 24.458 12.604 24.4663 12.5983C24.6288 12.4871 24.8275 12.351 25.0471 12.2467L25.0476 12.2465C25.07 12.2359 25.0942 12.224 25.1202 12.2113C25.3086 12.1193 25.5877 11.9829 25.9184 11.9483C25.2763 11.2763 24.529 10.9953 23.6257 11.1281C23.4927 11.1477 23.3063 11.1634 23.1123 11.0911C22.9077 11.0149 22.7715 10.8711 22.673 10.7303L22.7137 14.4439ZM22.7137 14.4439C22.2703 15.0639 21.6333 15.4507 20.8768 15.8122M22.7137 14.4439L20.8768 15.8122M26.2473 12.2342C26.2366 12.2486 26.226 12.2656 26.2166 12.2852C26.202 12.3158 26.1931 12.3469 26.1888 12.3761C26.1844 12.4061 26.1853 12.4305 26.1871 12.447C26.2165 12.4508 26.2462 12.4562 26.2763 12.4631C26.3176 12.4727 26.3568 12.5023 26.3958 12.5316L26.2473 12.2342ZM26.2473 12.2342L26.2782 12.2246L26.2473 12.2342ZM16.8293 3.35968L16.8293 3.35929C16.8463 3.14661 16.893 2.78374 17.197 2.50887C17.4225 2.30416 17.5884 2.04249 17.7992 1.70801L17.8026 1.70252C17.8897 1.56425 17.9852 1.41274 18.0952 1.26019C18.0577 1.25505 18.0228 1.2505 17.9911 1.24687C17.7501 1.21923 17.5719 1.22112 17.4125 1.27243L17.4122 1.27254C16.7454 1.48664 16.0887 1.5627 15.3333 1.38058C14.9499 1.28823 14.5448 1.2971 14.1051 1.36002C13.7934 1.40464 13.4932 1.47094 13.1765 1.54088C13.0327 1.57263 12.8855 1.60514 12.7323 1.6367L12.7322 1.63672C11.4702 1.8965 10.3685 2.4745 9.55068 3.46786C9.15758 3.94606 8.61768 4.28225 7.95367 4.30172C7.4051 4.31815 6.88569 4.50176 6.3429 4.74825L6.34252 4.74842C5.58749 5.09053 5.06667 5.56556 4.89855 6.33335C4.78119 6.87073 4.48212 7.39875 3.93155 7.71081L16.8293 3.35968ZM16.8293 3.35968C16.7077 4.89238 15.707 5.90239 14.2163 6.17308L16.8293 3.35968ZM1.79165 10.0734C2.32983 9.07871 2.98412 8.24828 3.93135 7.71092L1.79165 10.0734ZM20.8768 15.8122C19.1257 16.6474 17.2603 16.5618 15.267 16.3218L20.8768 15.8122ZM16.9662 9.83425C18.3152 9.22177 19.6301 8.85618 20.9946 9.29883M16.9662 9.83425L16.7595 9.37898L16.9662 9.83425ZM16.9662 9.83425C15.9596 10.2913 14.9352 10.5771 13.8656 10.7225C13.0307 10.8364 12.1827 10.8191 11.3817 10.8028C11.1915 10.799 11.004 10.7951 10.82 10.7932L20.9946 9.29883M20.9946 9.29883C21.6986 9.52733 22.1957 10.0479 22.6729 10.7302L20.9946 9.29883ZM26.2656 12.212C26.2786 12.1979 26.3055 12.1721 26.3487 12.1487L26.2787 12.224L26.2656 12.212ZM26.3222 12.264L26.279 12.2243L26.3222 12.264ZM26.2651 12.2126L26.2779 12.2243L26.2477 12.2336C26.2535 12.2258 26.2594 12.2188 26.2651 12.2126ZM9.37265 8.13978C9.00382 8.38592 8.64024 8.6429 8.28495 8.91157L12.2755 7.09095L12.1054 6.62077C12.1053 6.62078 12.1053 6.62078 12.1053 6.62078C11.1166 6.9785 10.2629 7.54696 9.46392 8.07902C9.43361 8.0992 9.40339 8.11933 9.37323 8.13939L9.37265 8.13978Z" stroke="#B9BB8B"/>
</svg>
