<svg xmlns="http://www.w3.org/2000/svg" width="1920" height="1080" viewBox="0 0 1920 1080" fill="none">
  <g filter="url(#filter0_d_240_3964)">
    <path fill-rule="evenodd" clip-rule="evenodd" d="M0 0H1920V1080H0V0ZM328 64C207.334 26 7.79114 89.5872 51.9999 290C81.9999 426 99.9999 550 51.9999 690C-16.5715 890 148.313 1033.54 260 1033.54C377.934 1033.54 506.373 1022.46 630.563 1011.74C746.797 1001.71 859.309 992 956 992C1051.07 992 1166.47 1002.52 1287.56 1013.55C1421.22 1025.73 1561.83 1038.54 1689.68 1038.54C1839.4 1038.54 1898 942 1894 850C1892.05 805.249 1881.97 760.497 1871.36 713.444C1860.16 663.765 1848.38 611.52 1845 554C1842.86 517.579 1851.9 477.715 1861.38 435.945C1869.6 399.729 1878.14 362.08 1880 324C1884 242 1864 154 1805.68 110C1751.49 69.1162 1632 43.5449 1465.68 43.5449C1371.82 43.5449 1113.94 76.6413 887.401 105.715C876.184 107.155 865.044 108.585 854.004 110C718.978 127.311 448.666 102 328 64Z" fill="#B9BB8B"/>
  </g>
  <defs>
    <filter id="filter0_d_240_3964" x="-54" y="-54" width="2028" height="1188" filterUnits="userSpaceOnUse" color-interpolation-filters="sRGB">
      <feFlood flood-opacity="0" result="BackgroundImageFix"/>
      <feColorMatrix in="SourceAlpha" type="matrix" values="0 0 0 0 0 0 0 0 0 0 0 0 0 0 0 0 0 0 127 0" result="hardAlpha"/>
      <feOffset/>
      <feGaussianBlur stdDeviation="27"/>
      <feComposite in2="hardAlpha" operator="out"/>
      <feColorMatrix type="matrix" values="0 0 0 0 0 0 0 0 0 0 0 0 0 0 0 0 0 0 0.45 0"/>
      <feBlend mode="normal" in2="BackgroundImageFix" result="effect1_dropShadow_240_3964"/>
      <feBlend mode="normal" in="SourceGraphic" in2="effect1_dropShadow_240_3964" result="shape"/>
    </filter>
  </defs>
</svg>