<svg width="125" height="126" viewBox="0 0 125 126" fill="none" xmlns="http://www.w3.org/2000/svg">
<circle cx="62.2797" cy="63.1397" r="61.2789" transform="rotate(90 62.2797 63.1397)" stroke="#B9BB8B" stroke-width="2"/>
<circle cx="62.2784" cy="63.141" r="43.5106" transform="rotate(90 62.2784 63.141)" fill="#B9BB8B"/>
<path d="M60.8393 42.4764C60.8393 41.8437 60.845 41.2104 60.838 40.5778C60.8285 39.6636 61.4206 39.0449 62.3049 39.0011C63.0042 38.9669 63.7719 39.4715 63.8061 40.4427C63.8543 41.812 63.8441 43.1858 63.8086 44.5557C63.7871 45.3957 63.1037 46.01 62.2967 45.9859C61.4244 45.9599 60.8424 45.3101 60.8399 44.4378C60.838 43.7836 60.8399 43.13 60.8399 42.4758L60.8393 42.4764Z" fill="#384C2C"/>
<path d="M65.7337 73.2921C65.7565 72.8306 65.6963 72.2607 65.7952 71.692C66.0196 70.4026 66.5629 69.2716 67.4352 68.2979C67.9854 67.6836 68.6783 67.2208 69.228 66.6034C70.0736 65.6544 70.7044 64.5824 71.1292 63.3855C71.5774 62.124 71.7339 60.8187 71.6167 59.4963C71.5127 58.3273 71.204 57.1983 70.6613 56.1453C69.6438 54.1718 68.1294 52.7081 66.1027 51.8034C65.1771 51.3901 64.2046 51.1112 63.1758 51.0788C62.8296 51.0681 62.4949 50.9495 62.1405 50.9761C59.9509 51.1397 57.9603 51.792 56.276 53.2634C54.8033 54.5497 53.8099 56.1168 53.3091 58.011C53.0276 59.0753 52.9192 60.1575 53.0397 61.2364C53.2432 63.0597 53.8949 64.7174 55.0588 66.1679C55.6325 66.8829 56.3508 67.4357 56.991 68.0748C57.8614 68.9439 58.4256 69.9842 58.7401 71.1747C58.8713 71.6717 58.9188 72.1675 58.9182 72.6746C58.9176 73.3403 58.9239 74.0059 58.9157 74.6709C58.9068 75.3784 58.2608 76.0161 57.5248 76.058C56.8509 76.0966 56.1739 75.5356 56.0262 74.8902C55.8607 74.1663 55.9343 73.4391 55.9355 72.7146C55.9374 71.4892 55.3891 70.5674 54.487 69.7908C53.1811 68.6669 52.0869 67.3673 51.3255 65.8065C50.7632 64.6534 50.367 63.4495 50.1794 62.1778C50.0513 61.3106 49.9568 60.4377 50.038 59.5647C50.2066 57.7542 50.6726 56.0255 51.5651 54.426C52.9801 51.8909 55.0499 50.0867 57.7055 48.9501C58.4497 48.6312 59.2326 48.4239 60.0339 48.2654C61.4299 47.9896 62.8277 47.9973 64.2186 48.1849C65.4744 48.3542 66.6694 48.7643 67.8118 49.3342C69.2495 50.0512 70.4711 51.0376 71.5514 52.2098C71.9444 52.6358 72.2753 53.1131 72.6043 53.5905C72.8674 53.9728 73.1311 54.3531 73.308 54.7861C73.3638 54.9237 73.9052 56.229 73.9838 56.4578C74.2557 57.2464 74.4237 58.0547 74.5245 58.8858C74.5936 59.4538 74.6475 60.0187 74.6215 60.5873C74.5562 62.0035 74.3033 63.3779 73.8012 64.7149C73.0595 66.6902 71.8404 68.3157 70.2771 69.6951C69.8049 70.1122 69.3484 70.5262 69.0746 71.0993C68.8787 71.5082 68.7246 71.9354 68.7265 72.4014C68.7284 73.0246 68.7436 73.649 68.7176 74.2709C68.6936 74.8503 68.5642 75.3974 68.04 75.7638C67.5518 76.1049 67.0447 76.1594 66.5236 75.8716C66.0551 75.6129 65.7362 75.2389 65.735 74.6665C65.7343 74.2436 65.735 73.8214 65.735 73.2914L65.7337 73.2921Z" fill="#384C2C"/>
<path d="M60.8593 71.2798C60.8593 69.0825 60.8555 66.8853 60.8644 64.6874C60.8657 64.4117 60.7839 64.2126 60.5874 64.0193C59.7201 63.1691 58.8605 62.3108 58.0085 61.4448C57.2522 60.6752 57.4094 59.5335 58.3477 59.039C58.9835 58.7037 59.5775 58.8178 60.2057 59.4238C60.8359 60.0318 61.4533 60.6537 62.0638 61.2825C62.2553 61.4797 62.3852 61.4892 62.5817 61.287C63.1986 60.6505 63.8249 60.0223 64.4607 59.4048C65.1752 58.7113 65.9854 58.6967 66.637 59.2704C67.2786 59.8359 67.2748 60.7995 66.6428 61.4436C65.9321 62.1669 65.2145 62.8832 64.4905 63.5933C64.3041 63.7758 63.7799 64.2031 63.8629 64.9588C63.8781 65.0976 63.7919 65.2079 63.7919 65.341C63.7894 67.6758 63.79 70.0106 63.79 72.3448C63.79 74.2041 63.797 76.0635 63.7837 77.9228C63.7811 78.2404 63.8699 78.3463 64.1945 78.3381C65.0072 78.3171 65.8212 78.3355 66.6345 78.3304C67.5341 78.3247 68.0412 78.9935 68.1268 79.7891C68.1864 80.3426 67.6285 81.0526 67.0852 81.2016C66.7683 81.2884 66.4488 81.3258 66.1178 81.3245C63.5086 81.3182 60.8993 81.3245 58.29 81.3182C57.6452 81.3163 57.0874 81.1115 56.7374 80.5201C56.1891 79.5939 56.8737 78.3697 57.8754 78.3399C58.7407 78.314 59.6079 78.3203 60.4739 78.338C60.7864 78.3444 60.8657 78.2334 60.8644 77.9361C60.8542 75.718 60.8587 73.4992 60.8587 71.2804L60.8593 71.2798Z" fill="#384C2C"/>
<path d="M62.3461 83.5385C62.9788 83.5385 63.6121 83.5442 64.2448 83.5372C65.1589 83.5277 65.7776 84.1198 65.8214 85.0042C65.8556 85.7034 65.351 86.4711 64.3798 86.5053C63.0105 86.5535 61.6367 86.5434 60.2668 86.5079C59.4268 86.4863 58.8125 85.8029 58.8366 84.9959C58.8626 84.1236 59.5124 83.5417 60.3847 83.5391C61.0389 83.5372 61.6925 83.5391 62.3467 83.5391L62.3461 83.5385Z" fill="#384C2C"/>
<path d="M77.8677 74.4036C77.7694 75.0077 77.5076 75.5111 76.8673 75.7539C76.2321 75.9948 75.7059 75.7862 75.2489 75.3577C74.7417 74.8822 74.2821 74.3529 73.7591 73.8964C73.3673 73.5547 73.0421 73.156 72.6782 72.7921C72.2263 72.3408 72.1045 71.6808 72.3537 71.1287C72.6174 70.5442 73.1803 70.1917 73.8193 70.231C74.1915 70.2538 74.5167 70.4275 74.7741 70.6779C75.6654 71.5464 76.5459 72.427 77.4138 73.3189C77.6895 73.6023 77.8366 73.9687 77.8677 74.403L77.8677 74.4036Z" fill="#384C2C"/>
<path d="M46.793 74.2666C46.819 73.9579 46.9724 73.587 47.2583 73.2948C48.1135 72.42 48.9718 71.5458 49.8562 70.7001C50.2467 70.3267 50.7272 70.1054 51.3003 70.2798C51.9368 70.4731 52.3209 70.8896 52.416 71.554C52.4857 72.0421 52.2918 72.4574 51.9691 72.7908C51.1114 73.6764 50.2429 74.5532 49.3534 75.4064C48.9167 75.8255 48.3702 75.9941 47.7787 75.7589C47.1885 75.5237 46.7949 74.9386 46.7936 74.2666L46.793 74.2666Z" fill="#384C2C"/>
<path d="M48.273 44.8519C48.7338 44.7987 49.0964 44.9952 49.4077 45.3058C50.2375 46.1319 51.0718 46.9535 51.8896 47.7909C52.6991 48.6201 52.5603 49.7523 51.603 50.2639C51.0819 50.5428 50.318 50.4268 49.8464 49.964C48.9893 49.1228 48.1379 48.2746 47.3011 47.4131C46.4707 46.5585 46.7388 45.4612 47.6022 44.9819C47.8184 44.8621 48.0447 44.8589 48.273 44.8513L48.273 44.8519Z" fill="#384C2C"/>
<path d="M76.319 44.8502C76.9682 44.821 77.3961 45.1006 77.6776 45.6147C77.9654 46.1396 77.8849 46.6474 77.5698 47.1343C77.3612 47.4569 77.0645 47.6978 76.7983 47.9666C76.146 48.6253 75.4974 49.2884 74.8324 49.9344C74.383 50.3712 73.834 50.5335 73.2305 50.3357C72.6606 50.1487 72.3411 49.7106 72.2403 49.1299C72.1496 48.6063 72.3842 48.1771 72.7335 47.8202C73.5741 46.9606 74.4267 46.113 75.2819 45.268C75.578 44.9751 75.9323 44.8007 76.319 44.8508L76.319 44.8502Z" fill="#384C2C"/>
<path d="M44.3185 61.8108C43.7176 61.8108 43.1166 61.814 42.5156 61.8102C41.81 61.8051 41.1222 61.2618 41.0233 60.6374C40.8953 59.831 41.3016 59.1755 42.0687 58.915C42.2639 58.849 42.4535 58.8205 42.6551 58.8205C43.8367 58.823 45.0197 58.7907 46.2007 58.8307C47.4204 58.8719 48.067 60.1195 47.4952 61.0685C47.2125 61.5369 46.7903 61.8127 46.2185 61.8108C45.5851 61.8083 44.9518 61.8108 44.3192 61.8108L44.3185 61.8108Z" fill="#384C2C"/>
<path d="M80.3212 61.8106C79.7095 61.8106 79.0971 61.8144 78.4854 61.81C77.7316 61.8043 77.0698 61.2699 76.969 60.5928C76.8523 59.8093 77.2581 59.1798 78.0296 58.9122C78.214 58.8482 78.3941 58.8203 78.5849 58.8203C79.7564 58.8222 80.9273 58.819 82.0988 58.8235C82.7955 58.826 83.4497 59.3199 83.6101 59.9532C83.7838 60.6397 83.4592 61.3256 82.7993 61.6737C82.5971 61.7802 82.3816 61.8112 82.1571 61.8112C81.5454 61.8106 80.933 61.8112 80.3212 61.8112L80.3212 61.8106Z" fill="#384C2C"/>
</svg>
