<svg width="125" height="126" viewBox="0 0 125 126" fill="none" xmlns="http://www.w3.org/2000/svg">
<circle cx="62.2797" cy="62.9996" r="61.2789" transform="rotate(90 62.2797 62.9996)" stroke="#B9BB8B" stroke-width="2"/>
<circle cx="62.2784" cy="63.0009" r="43.5106" transform="rotate(90 62.2784 63.0009)" fill="#B9BB8B"/>
<path d="M76.1515 72.793C76.1864 72.626 76.2083 72.5074 76.2345 72.3712C75.885 72.2833 75.5705 72.8677 75.2691 72.2657C75.1774 72.4898 75.1293 72.6085 75.0987 72.6876C74.8629 72.6085 74.6313 72.525 74.3561 72.4327C74.212 73.2236 74.9502 73.1797 75.2342 73.5751C75.0332 73.6894 74.8498 73.7904 74.6838 73.8871C74.5352 73.7729 74.4042 73.6674 74.2731 73.5664C74.1028 73.83 73.9281 74.0892 73.7839 74.3133C73.4563 74.4539 73.1243 74.5902 72.6569 74.7879C72.421 75.1877 72.456 75.3196 73.0151 75.5261C72.9452 75.8117 72.8447 75.9874 72.4778 75.8996C72.2201 75.838 71.9318 75.882 71.6566 75.8996C71.5998 75.8996 71.4993 75.9874 71.5037 76.0226C71.5124 76.0973 71.5605 76.194 71.6216 76.2379C71.9012 76.4268 72.1939 76.5982 72.4603 76.7608C72.3074 77.2353 72.1633 77.6791 71.9755 78.2547C71.9056 78.1053 71.8662 78.0175 71.8182 77.9076C71.6784 78.0262 71.5692 78.1185 71.4644 78.2064C71.1761 78.0965 71.0974 77.6264 70.7174 77.7231C70.6781 77.7802 70.6344 77.8373 70.5951 77.8944C70.9708 78.2108 71.3464 78.5228 71.8007 78.905C71.7483 79.0369 71.6042 79.2653 71.5736 79.5114C71.543 79.7619 71.5386 80.0826 71.6697 80.2716C72.006 80.7461 72.089 81.2514 72.1414 81.7611C72.2594 81.972 72.3904 82.1786 72.4909 82.3983C72.6438 82.7366 72.6525 83.1936 73.2422 83.1496C73.1723 83.2639 73.1461 83.3561 73.0894 83.4001C73.0195 83.4528 72.884 83.4396 72.8447 83.5011C72.4385 84.1295 72.1371 83.6418 71.8051 83.4133C71.2853 83.0574 70.6956 83.2199 70.1321 83.1936C69.8656 83.1804 69.6428 83.2507 69.3589 83.0574C68.9483 82.7761 68.4241 82.6707 67.9479 82.4817C67.7863 82.4202 67.6334 82.3367 67.4718 82.2708C67.3451 82.2181 67.2184 82.139 67.0874 82.139C66.4671 82.139 66.3535 82.0116 66.1308 81.4448C65.9429 80.9614 65.6371 80.522 65.3882 80.0651C65.3401 79.9772 65.2615 79.8893 65.2484 79.797C65.1785 79.1687 64.7941 78.637 64.7591 77.9867C64.746 77.7055 64.449 77.3408 64.1825 77.2002C63.7239 76.9629 63.4792 76.6158 63.2477 76.1896C63.0118 75.7633 62.8852 75.2405 62.2474 75.0955C62.0246 75.0471 61.8892 74.5506 61.7363 74.243C61.5965 73.9662 61.5092 73.6674 61.3694 73.395C61.1204 72.916 60.8103 72.4635 60.5875 71.9713C60.2599 71.2463 59.6745 70.741 59.1591 70.1786C59.0105 70.016 58.7179 69.994 58.5213 69.8622C58.3684 69.7612 58.2548 69.5942 58.1413 69.4448C57.6651 68.8121 56.9706 68.8121 56.2804 68.7813C55.7518 68.7549 55.2014 68.8824 54.7209 68.5221C54.6554 68.4737 54.4894 68.5265 54.3933 68.5792C54.1094 68.7242 53.8473 68.9219 53.559 69.0493C53.0654 69.2646 52.8557 69.6074 52.7378 70.1478C52.6373 70.6048 52.6067 71.1672 52.1218 71.4748C52.1087 71.4836 52.1 71.5012 52.0869 71.5056C51.7767 71.5803 51.8597 72.3009 51.305 71.9713C51.0254 71.8044 50.7371 71.6198 50.4313 71.5319C49.9028 71.3825 49.4965 71.0134 48.9811 70.8113C48.2647 70.5301 47.6706 69.9106 47.0722 69.3833C46.845 69.1812 46.7096 68.8428 46.596 68.544C46.4956 68.2716 46.4999 67.964 46.4213 67.6828C46.347 67.406 46.2291 67.1424 46.1243 66.8743C46.0718 66.7425 45.9845 66.6195 45.9539 66.4877C45.7573 65.6001 45.255 65.0201 44.3944 64.6773C44.0537 64.5411 43.8178 64.1237 43.5383 63.8293C43.4727 63.759 43.4509 63.6096 43.3766 63.5876C42.8481 63.4207 42.6035 62.9593 42.289 62.5682C42.2496 62.5199 42.2234 62.4496 42.1754 62.432C41.7691 62.309 41.4109 62.1552 41.2144 61.7158C41.0484 61.3379 40.795 60.9952 40.5766 60.6261C40.0175 60.67 40 60.6568 40 60.1208L52.1917 60.1208L52.1917 42L61.7189 42C61.7538 43.327 61.7887 44.6452 61.8237 45.9634C61.8543 47.119 61.8761 48.279 61.9067 49.4346C61.9198 49.8389 62.0377 49.896 62.2518 49.7554C62.5707 50.0058 62.8415 50.2519 63.1473 50.4321C63.2215 50.476 63.4181 50.309 63.5972 50.2211C63.7239 50.3925 63.9073 50.5902 64.1869 50.309C64.2 50.2958 64.4403 50.498 64.5538 50.621C64.6849 50.7616 64.8159 51.0692 64.9077 51.056C65.4799 50.9725 65.956 51.5745 66.5632 51.2713C66.655 51.223 66.8603 51.4339 67.0263 51.4866C67.2578 51.5657 67.5242 51.6668 67.5024 51.2845L68.1533 51.2845C68.0484 51.6755 68.3411 51.7151 68.5857 51.7063C68.7342 51.9172 68.8522 52.2248 68.957 52.216C69.2278 52.2028 69.4943 52.0534 69.7651 51.9568C69.7651 51.8996 69.7651 51.8381 69.7695 51.781C69.9879 51.9524 70.1845 52.194 70.4335 52.2775C70.6519 52.3478 70.9271 52.238 71.1761 52.2072C71.2809 52.2995 71.4294 52.5412 71.5998 52.5587C72.1283 52.6115 71.8138 51.9787 72.1633 51.8469C72.2201 51.8821 72.3074 51.9699 72.4123 51.9963C72.7923 52.0974 73.1811 52.1589 73.5524 52.2731C73.7184 52.3215 73.8538 52.4665 74.0111 52.5456C74.1072 52.5939 74.2557 52.6554 74.3299 52.6159C74.5003 52.5236 74.6357 52.3742 74.8323 52.3039C74.8891 51.8206 75.2822 51.8821 75.6142 51.8601C75.6841 51.8557 75.7933 51.9392 75.8195 51.9128C76.3262 51.4163 77.0513 51.8821 77.51 51.5877C78.0866 51.2186 78.3618 51.6009 78.755 51.7986C79.0651 51.9568 79.3927 52.0886 79.7116 52.2292C80.0392 52.3742 80.3712 52.5192 80.76 52.6906C80.9565 52.6378 81.2536 52.5587 81.5987 52.4665C81.6729 53.1695 81.7559 53.8286 81.8171 54.4877C81.9481 55.8982 82.0617 57.3086 82.2059 58.7191C82.219 58.8641 82.3981 59.0399 82.5422 59.1058C82.9485 59.2991 83.145 59.5715 83.1407 60.0417C83.1407 60.2702 83.2324 60.569 83.394 60.714C83.8745 61.1446 84.0624 61.7597 84.2589 62.2958C84.4162 62.7308 84.4206 63.3284 84.0667 63.8469C83.7435 64.3214 83.7828 64.919 84.0099 65.4814C84.0842 65.6616 84.106 65.9077 84.0492 66.0922C83.9269 66.4877 83.7216 66.8568 83.5906 67.2478C83.5338 67.4104 83.5819 67.6081 83.5819 67.819C82.7038 68.0343 81.9481 68.7637 80.9216 68.5704C80.9434 68.5396 81.0221 68.4781 81.0308 68.4122C81.0526 68.1881 81.0483 67.964 81.0526 67.7355C80.8735 67.7751 80.6508 67.7619 80.5328 67.8674C80.2576 68.109 80.0305 68.0915 79.7859 67.8498C79.5937 68.1574 79.7378 68.6759 79.9693 69.0274C80.1135 69.2471 80.1877 69.5898 80.1266 69.8359C80.0873 70.0072 79.7596 70.1039 79.4976 70.1566C79.4277 70.3807 79.3796 70.618 79.2748 70.8289C79.2049 70.9695 79.0607 71.075 78.9428 71.1804C78.8816 71.2332 78.7418 71.2419 78.72 71.2991C78.4798 71.9845 77.8245 72.0109 77.2872 72.1735C77.0513 72.2438 76.8417 72.2438 76.6713 72.4723C76.5665 72.6129 76.3568 72.6744 76.1559 72.793L76.1515 72.793Z" stroke="#384C2C" stroke-width="2"/>
</svg>
