<svg width="125" height="125" viewBox="0 0 125 125" fill="none" xmlns="http://www.w3.org/2000/svg">
<circle cx="62.2797" cy="62.2789" r="61.2789" transform="rotate(90 62.2797 62.2789)" stroke="#B9BB8B" stroke-width="2"/>
<circle cx="62.2784" cy="62.2802" r="43.5106" transform="rotate(90 62.2784 62.2802)" fill="#B9BB8B"/>
<path d="M80.6528 61.4437C80.5698 60.8855 80.5437 60.3199 80.4517 59.7569C80.2745 58.6751 79.9733 57.6343 79.6131 56.6031C79.2826 55.657 78.5627 55.2446 77.6091 55.5086C77.01 55.6746 76.3353 56.6058 76.6359 57.3715C77.0435 58.4091 77.3548 59.4861 77.4873 60.5897C77.598 61.5134 77.682 62.4419 77.6214 63.3891C77.5538 64.4384 77.4362 65.4659 77.1872 66.486C76.9515 67.4517 76.6423 68.393 76.1975 69.2758C75.6494 70.3634 75.0896 71.4505 74.1999 72.3226C73.8716 72.7643 73.4975 73.174 73.0857 73.5433C73.0915 73.5923 73.0633 73.6295 72.9723 73.6417C72.8532 73.7801 72.7286 73.9137 72.6004 74.044C72.5195 74.2095 72.3716 74.3133 72.2183 74.4112C71.8219 74.7671 71.3909 75.0859 70.9344 75.3605C69.9814 76.0038 68.9677 76.5316 67.8827 76.9233C67.1128 77.201 66.3364 77.4468 65.525 77.5916C64.8667 77.7092 64.2144 77.8603 63.545 77.8837C62.1785 77.9316 60.8227 77.8747 59.4786 77.5676C58.6219 77.3718 57.7823 77.135 56.974 76.7998C55.6677 76.2586 54.4364 75.5893 53.3173 74.706C52.3893 73.9738 51.5438 73.1671 50.818 72.2423C49.9236 71.1036 49.2004 69.868 48.6401 68.5197C48.0755 67.1607 47.7153 65.7543 47.5775 64.3139C47.47 63.1917 47.4753 62.0487 47.6429 60.9073C47.8106 59.7633 48.0787 58.6597 48.4746 57.5795C49.1488 55.74 50.1508 54.1038 51.4715 52.6559C51.7093 52.3952 51.9977 52.1882 52.2265 51.9333C52.7193 51.3842 53.2961 50.9457 53.8904 50.5275C55.0403 49.7182 56.2769 49.0839 57.6141 48.6242C58.5522 48.3012 59.5026 48.0729 60.4758 47.9021C60.8962 47.8281 61.3288 47.9111 61.7337 47.7994C62.2328 47.6616 62.7458 47.6589 63.2236 47.7478C63.9372 47.8808 64.6629 47.8521 65.3754 48.0255C66.1369 48.2112 66.8962 48.3874 67.6364 48.647C67.912 48.7439 67.8923 48.8567 67.7577 49.0679C67.4821 49.4995 67.224 49.9427 66.9718 50.3881C66.6839 50.8952 66.8653 51.2198 67.4331 51.207C67.8987 51.1969 68.3547 51.1086 68.8145 51.0256C69.9298 50.8239 71.0562 50.6829 72.1768 50.5073C73.0452 50.3711 73.4363 49.9204 73.0788 48.9902C72.818 48.3118 72.5818 47.6233 72.3391 46.9374C72.055 46.1339 71.7879 45.3246 71.491 44.5259C71.292 43.99 70.8748 43.9283 70.5571 44.3923C70.2559 44.8318 69.9925 45.299 69.7265 45.7619C69.6084 45.9673 69.5115 46.0503 69.2428 45.9562C68.7932 45.7987 68.3627 45.5869 67.8944 45.4773C67.166 45.307 66.445 45.1117 65.7085 44.9648C64.9817 44.8201 64.2474 44.7483 63.5205 44.694C62.1248 44.5897 60.736 44.7446 59.3504 44.9829C58.1648 45.1867 57.0182 45.5161 55.9124 45.9519C53.8878 46.7506 52.0435 47.8744 50.4232 49.3388C49.458 50.2109 48.5949 51.1804 47.8419 52.2441C46.8246 53.6813 46.0062 55.2191 45.4421 56.8931C45.2586 57.438 44.7142 59.5936 44.7052 59.6691C44.6211 60.3784 44.5195 61.0845 44.4615 61.7981C44.379 62.816 44.4269 63.8318 44.5386 64.8354C44.6371 65.7197 44.8025 66.603 45.0415 67.4698C45.299 68.4042 45.6087 69.3194 46.0046 70.1995C46.5276 71.3617 47.1529 72.4674 47.9106 73.5023C48.9471 74.9188 50.1343 76.1799 51.5412 77.2271C52.8225 78.1806 54.1783 79.0011 55.6724 79.596C56.626 79.9754 57.5928 80.2899 58.5884 80.5256C59.2078 80.6725 59.8367 80.7566 60.4689 80.8385C61.3288 80.9497 62.1902 81.0343 63.0491 80.9689C63.6573 80.9226 64.2676 80.9274 64.88 80.8295C65.5409 80.7236 66.213 80.6406 66.8558 80.4756C68.1429 80.1452 69.3934 79.6977 70.5933 79.106C72.3226 78.253 73.8647 77.1451 75.2748 75.8388C75.6611 75.4807 75.9665 75.0545 76.3257 74.6735C77.102 73.8487 77.7305 72.909 78.2865 71.931C79.04 70.6066 79.6301 69.2104 80.0462 67.7322C80.4644 66.2465 80.648 64.7348 80.7518 63.2076C80.7917 62.6202 80.7422 62.0327 80.6549 61.4426L80.6528 61.4437Z" fill="#384C2C"/>
<path d="M64.7796 63.4584C65.408 63.7803 65.963 64.0607 66.5148 64.3475C68.0579 65.1499 69.5989 65.9566 71.142 66.7585C71.5762 66.9841 72.0051 67.2262 72.4552 67.4146C73.3657 67.7956 73.4423 68.847 72.9597 69.4723C72.6745 69.8421 71.9189 69.9985 71.4538 69.7575C70.1416 69.0764 68.8348 68.3862 67.5215 67.7067C66.7734 67.3194 66.0061 66.9671 65.268 66.5622C63.8223 65.7683 62.3356 65.0558 60.8792 64.2837C60.6632 64.1693 60.669 63.9788 60.669 63.7835C60.6685 62.185 60.668 60.5871 60.668 58.9887C60.668 56.8656 60.6696 54.7419 60.668 52.6188C60.668 52.2809 60.7191 51.959 60.9255 51.6802C61.257 51.2321 61.812 51.0507 62.3234 51.2183C62.8714 51.3981 63.1646 51.8026 63.1652 52.406C63.1678 54.9744 63.1662 57.5429 63.1667 60.1119C63.2806 62.1116 62.5905 62.3298 64.7785 63.4584L64.7796 63.4584Z" fill="#384C2C"/>
</svg>
